<?xml version="1.0" encoding="utf-8"?>
<!-- Generator: Adobe Illustrator 23.0.1, SVG Export Plug-In . SVG Version: 6.00 Build 0)  -->
<svg version="1.1" id="Capa_1" xmlns="http://www.w3.org/2000/svg" xmlns:xlink="http://www.w3.org/1999/xlink" x="0px" y="0px"
	 viewBox="0 0 613.54 88.49" style="enable-background:new 0 0 613.54 88.49;" xml:space="preserve">
<style type="text/css">
	.st0{filter:url(#Adobe_OpacityMaskFilter);}
	.st1{clip-path:url(#SVGID_2_);fill:url(#SVGID_4_);}
	.st2{clip-path:url(#SVGID_2_);mask:url(#SVGID_3_);}
	.st3{clip-path:url(#SVGID_6_);fill:#FBBB0E;}
	.st4{clip-path:url(#SVGID_6_);fill:none;stroke:#B57303;stroke-width:0.168;}
	.st5{filter:url(#Adobe_OpacityMaskFilter_1_);}
	.st6{clip-path:url(#SVGID_2_);fill:url(#SVGID_8_);}
	.st7{clip-path:url(#SVGID_2_);mask:url(#SVGID_7_);}
	.st8{clip-path:url(#SVGID_10_);fill:#E53112;}
	.st9{clip-path:url(#SVGID_10_);fill:none;stroke:#8B3626;stroke-width:0.168;}
	.st10{filter:url(#Adobe_OpacityMaskFilter_2_);}
	.st11{clip-path:url(#SVGID_2_);fill:url(#SVGID_12_);}
	.st12{clip-path:url(#SVGID_2_);mask:url(#SVGID_11_);}
	.st13{clip-path:url(#SVGID_14_);fill:#64B32F;}
	.st14{clip-path:url(#SVGID_14_);fill:none;stroke:#175736;stroke-width:0.168;}
	.st15{filter:url(#Adobe_OpacityMaskFilter_3_);}
	.st16{clip-path:url(#SVGID_2_);fill:url(#SVGID_16_);}
	.st17{clip-path:url(#SVGID_2_);mask:url(#SVGID_15_);}
	.st18{clip-path:url(#SVGID_18_);fill:#4287C7;}
	.st19{clip-path:url(#SVGID_18_);fill:none;stroke:#004461;stroke-width:0.168;}
	.st20{clip-path:url(#SVGID_20_);}
</style>
<g>
	<defs>
		<rect id="SVGID_1_" width="680.15" height="88.49"/>
	</defs>
	<clipPath id="SVGID_2_">
		<use xlink:href="#SVGID_1_"  style="overflow:visible;"/>
	</clipPath>
	<defs>
		<filter id="Adobe_OpacityMaskFilter" filterUnits="userSpaceOnUse" x="35.33" y="7.6" width="41.88" height="49.18">
			<feFlood  style="flood-color:white;flood-opacity:1" result="back"/>
			<feBlend  in="SourceGraphic" in2="back" mode="normal"/>
		</filter>
	</defs>
	<mask maskUnits="userSpaceOnUse" x="35.33" y="7.6" width="41.88" height="49.18" id="SVGID_3_">
		<g class="st0">
			
				<linearGradient id="SVGID_4_" gradientUnits="userSpaceOnUse" x1="244.7866" y1="446.3682" x2="245.7866" y2="446.3682" gradientTransform="matrix(-13.8711 -10.1521 -10.1521 13.8711 8070.999 -3805.8337)">
				<stop  offset="0" style="stop-color:#FFFFFF"/>
				<stop  offset="1" style="stop-color:#000000"/>
			</linearGradient>
			<polygon class="st1" points="442.9,412.65 -42.17,57.62 237.25,-324.16 722.32,30.87 			"/>
		</g>
	</mask>
	<g class="st2">
		<g>
			<defs>
				<rect id="SVGID_5_" x="35.33" y="7.6" width="41.88" height="49.18"/>
			</defs>
			<clipPath id="SVGID_6_">
				<use xlink:href="#SVGID_5_"  style="overflow:visible;"/>
			</clipPath>
			<path class="st3" d="M36.43,16.69c0,0,24.65,1.37,29.73,23.34l3.81-0.73l-7.81,8.37l-8.52-4.02l3.08-1.27
				c0,0-3.94-15.33-20.31-16.38L36.43,16.69z"/>
			<path class="st4" d="M36.43,16.69c0,0,24.65,1.37,29.73,23.34l3.81-0.73l-7.81,8.37l-8.52-4.02l3.08-1.27
				c0,0-3.94-15.33-20.31-16.38L36.43,16.69z"/>
		</g>
	</g>
	<defs>
		<filter id="Adobe_OpacityMaskFilter_1_" filterUnits="userSpaceOnUse" x="-0.24" y="2.98" width="51.64" height="44.8">
			<feFlood  style="flood-color:white;flood-opacity:1" result="back"/>
			<feBlend  in="SourceGraphic" in2="back" mode="normal"/>
		</filter>
	</defs>
	<mask maskUnits="userSpaceOnUse" x="-0.24" y="2.98" width="51.64" height="44.8" id="SVGID_7_">
		<g class="st5">
			
				<linearGradient id="SVGID_8_" gradientUnits="userSpaceOnUse" x1="206.0972" y1="457.4843" x2="207.0972" y2="457.4843" gradientTransform="matrix(-7.0005 11.2907 11.2907 7.0005 -3464.4832 -5353.0957)">
				<stop  offset="0" style="stop-color:#FFFFFF"/>
				<stop  offset="1" style="stop-color:#000000"/>
			</linearGradient>
			<polygon class="st6" points="719.78,24.57 491.29,393.1 -39.63,63.92 188.87,-304.61 			"/>
		</g>
	</mask>
	<g class="st7">
		<g>
			<defs>
				<rect id="SVGID_9_" x="-0.24" y="2.98" width="51.64" height="44.8"/>
			</defs>
			<clipPath id="SVGID_10_">
				<use xlink:href="#SVGID_9_"  style="overflow:visible;"/>
			</clipPath>
			<path class="st8" d="M8.89,44.24c0,0,2.88-24.52,25.11-28.25l-0.49-3.85l7.88,8.3l-4.53,8.26l-1.08-3.15
				c0,0-15.54,2.99-17.59,19.27L8.89,44.24z"/>
			<path class="st9" d="M8.89,44.24c0,0,2.88-24.52,25.11-28.25l-0.49-3.85l7.88,8.3l-4.53,8.26l-1.08-3.15
				c0,0-15.54,2.99-17.59,19.27L8.89,44.24z"/>
		</g>
	</g>
	<defs>
		<filter id="Adobe_OpacityMaskFilter_2_" filterUnits="userSpaceOnUse" x="24.86" y="41.84" width="50.26" height="43.15">
			<feFlood  style="flood-color:white;flood-opacity:1" result="back"/>
			<feBlend  in="SourceGraphic" in2="back" mode="normal"/>
		</filter>
	</defs>
	<mask maskUnits="userSpaceOnUse" x="24.86" y="41.84" width="50.26" height="43.15" id="SVGID_11_">
		<g class="st10">
			
				<linearGradient id="SVGID_12_" gradientUnits="userSpaceOnUse" x1="254.6841" y1="470.1272" x2="255.6841" y2="470.1272" gradientTransform="matrix(2.3777 -8.936 -8.936 -2.3777 3914.1484 3518.3621)">
				<stop  offset="0" style="stop-color:#FFFFFF"/>
				<stop  offset="1" style="stop-color:#000000"/>
			</linearGradient>
			<polygon class="st11" points="-21.99,82.64 44.97,-169.01 702.14,5.85 635.18,257.5 			"/>
		</g>
	</mask>
	<g class="st12">
		<g>
			<defs>
				<rect id="SVGID_13_" x="24.86" y="41.84" width="50.26" height="43.15"/>
			</defs>
			<clipPath id="SVGID_14_">
				<use xlink:href="#SVGID_13_"  style="overflow:visible;"/>
			</clipPath>
			<path class="st13" d="M66,43.99c0,0-2.02,24.6-24.11,29.11l0.63,3.83l-8.17-8.02l4.24-8.41l1.19,3.11c0,0,15.42-3.53,16.9-19.87
				L66,43.99z"/>
			<path class="st14" d="M66,43.99c0,0-2.02,24.6-24.11,29.11l0.63,3.83l-8.17-8.02l4.24-8.41l1.19,3.11c0,0,15.42-3.53,16.9-19.87
				L66,43.99z"/>
		</g>
	</g>
	<defs>
		<filter id="Adobe_OpacityMaskFilter_3_" filterUnits="userSpaceOnUse" x="-3.86" y="30.13" width="46.01" height="52.64">
			<feFlood  style="flood-color:white;flood-opacity:1" result="back"/>
			<feBlend  in="SourceGraphic" in2="back" mode="normal"/>
		</filter>
	</defs>
	<mask maskUnits="userSpaceOnUse" x="-3.86" y="30.13" width="46.01" height="52.64" id="SVGID_15_">
		<g class="st15">
			
				<linearGradient id="SVGID_16_" gradientUnits="userSpaceOnUse" x1="179.259" y1="519.3524" x2="180.259" y2="519.3524" gradientTransform="matrix(7.2612 2.1509 2.1509 -7.2612 -2359.5618 3346.5798)">
				<stop  offset="0" style="stop-color:#FFFFFF"/>
				<stop  offset="1" style="stop-color:#000000"/>
			</linearGradient>
			<polygon class="st16" points="54.86,-185.22 704.25,7.14 625.29,273.71 -24.1,81.35 			"/>
		</g>
	</mask>
	<g class="st17">
		<g>
			<defs>
				<rect id="SVGID_17_" x="-3.86" y="30.13" width="46.01" height="52.64"/>
			</defs>
			<clipPath id="SVGID_18_">
				<use xlink:href="#SVGID_17_"  style="overflow:visible;"/>
			</clipPath>
			<path class="st18" d="M37.55,73.62c0,0-24.43-3.52-27.58-25.84l-3.86,0.39l8.51-7.66l8.14,4.74l-3.17,1
				c0,0,2.59,15.61,18.8,18.09L37.55,73.62z"/>
			<path class="st19" d="M37.55,73.62c0,0-24.43-3.52-27.58-25.84l-3.86,0.39l8.51-7.66l8.14,4.74l-3.17,1
				c0,0,2.59,15.61,18.8,18.09L37.55,73.62z"/>
		</g>
	</g>
</g>
<g>
	<path d="M17.6,37.43l-0.17,0.5l-0.67,0.06l-0.25,0.75l-0.25,0.75l0.49,0.46l-0.17,0.5l-3.04-2.72L17.6,37.43z M16.12,38.62
		l0.2-0.58c-0.25,0.02-0.52,0.04-0.81,0.05s-0.56,0.02-0.81,0.04c0.19,0.17,0.39,0.35,0.62,0.53c0.22,0.18,0.43,0.36,0.62,0.53
		L16.12,38.62z"/>
</g>
<g>
	<path d="M15.67,32.94c0.14-0.19,0.29-0.34,0.46-0.47c0.2-0.14,0.43-0.24,0.67-0.3h0c0.23-0.05,0.46-0.05,0.7,0.01
		c0.24,0.06,0.46,0.15,0.67,0.28c0.21,0.13,0.39,0.3,0.54,0.49c0.15,0.19,0.25,0.4,0.3,0.63l0,0c0.05,0.24,0.05,0.49,0.01,0.74
		c-0.05,0.24-0.14,0.48-0.29,0.71l-0.5,0.77l-3.13-2.01l0.5-0.77L15.67,32.94z M18.32,34.77c0.11-0.17,0.18-0.34,0.22-0.51
		c0.04-0.17,0.04-0.34,0-0.52c-0.04-0.17-0.11-0.33-0.22-0.48c-0.1-0.14-0.24-0.27-0.41-0.38c-0.17-0.11-0.34-0.18-0.51-0.22
		c-0.17-0.04-0.35-0.04-0.52,0c-0.17,0.04-0.33,0.11-0.48,0.22c-0.14,0.11-0.27,0.24-0.38,0.41l-0.14,0.22l-0.08,0.13l0.13,0.08
		l2.04,1.31l0.13,0.08L18.18,35L18.32,34.77L18.32,34.77z"/>
</g>
<g>
	<path d="M21.51,29.46l-0.32-0.31l-1.5-1.44l0.34-0.36l2.74,2.62l-3.55-0.03l0.21,0.2l1.63,1.55l-0.34,0.36l-2.72-2.6L21.51,29.46z"
		/>
</g>
<g>
</g>
<g>
	<path d="M26.63,22.74l0.22,0.44l-1.3,0.67l-0.14,0.07l0.07,0.14l0.37,0.72l0.07,0.14l0.14-0.07l0.94-0.48l0.23,0.44l-0.94,0.48
		l-0.14,0.07l0.07,0.14l0.37,0.72l0.07,0.14l0.14-0.07l1.3-0.67l0.22,0.44l-1.3,0.67l-0.58,0.3l-1.7-3.33L26.63,22.74z"/>
</g>
<g>
	<path d="M30.85,24.47c0.06-0.05,0.12-0.1,0.16-0.17c0.04-0.06,0.07-0.13,0.09-0.21c0.02-0.08,0.01-0.15-0.01-0.23
		c-0.02-0.07-0.05-0.12-0.09-0.17c-0.04-0.05-0.09-0.08-0.15-0.11c-0.05-0.03-0.12-0.05-0.19-0.06s-0.14-0.03-0.21-0.03
		s-0.13-0.01-0.21-0.01c-0.17,0-0.33-0.02-0.47-0.05c-0.14-0.03-0.28-0.09-0.4-0.18c-0.08-0.06-0.16-0.13-0.22-0.22
		s-0.11-0.18-0.14-0.29c-0.04-0.14-0.05-0.28-0.03-0.42c0.02-0.14,0.06-0.27,0.13-0.39c0.07-0.12,0.16-0.23,0.27-0.32
		c0.11-0.09,0.24-0.15,0.38-0.19c0.13-0.04,0.26-0.05,0.38-0.04c0.13,0.01,0.25,0.04,0.37,0.1c0.19,0.09,0.35,0.23,0.46,0.41
		l-0.45,0.24c-0.05-0.07-0.11-0.12-0.19-0.17c-0.14-0.08-0.28-0.09-0.43-0.05c-0.07,0.02-0.14,0.05-0.2,0.1
		c-0.06,0.05-0.11,0.1-0.14,0.17c-0.04,0.07-0.06,0.14-0.07,0.21c-0.01,0.07-0.01,0.15,0.02,0.22c0.01,0.05,0.04,0.1,0.07,0.14
		c0.03,0.04,0.06,0.08,0.09,0.1c0.03,0.03,0.07,0.05,0.12,0.07c0.05,0.02,0.09,0.03,0.13,0.04c0.04,0.01,0.09,0.02,0.15,0.02
		C30.13,23,30.18,23,30.22,23c0.04,0,0.09,0,0.14,0c0.05,0,0.1,0,0.13,0.01c0.1,0.01,0.19,0.02,0.28,0.04
		c0.09,0.02,0.18,0.05,0.27,0.09c0.09,0.04,0.17,0.08,0.24,0.14c0.07,0.05,0.14,0.12,0.19,0.2c0.06,0.08,0.1,0.17,0.12,0.26
		c0.04,0.14,0.05,0.28,0.02,0.43c-0.02,0.15-0.07,0.28-0.15,0.4c-0.08,0.12-0.17,0.22-0.29,0.32c-0.12,0.09-0.25,0.16-0.39,0.2
		c-0.15,0.04-0.31,0.05-0.47,0.03c-0.16-0.02-0.31-0.08-0.45-0.16c-0.14-0.08-0.25-0.19-0.34-0.33l0.45-0.24
		c0.07,0.1,0.18,0.16,0.3,0.2c0.13,0.04,0.25,0.04,0.37,0.01C30.72,24.56,30.79,24.52,30.85,24.47z"/>
</g>
<g>
	<path d="M34.54,20.4l0.83-0.1l0.06,0.49l-0.83,0.1l-0.16,0.02l0.02,0.15l0.39,3.05l-0.49,0.06l-0.39-3.05l-0.02-0.15l-0.16,0.02
		l-0.83,0.1L32.9,20.6l0.83-0.1L34.54,20.4z"/>
</g>
<g>
	<path d="M37.83,20.12l1.16,0.09c0.18,0.01,0.36,0.06,0.52,0.14c0.15,0.07,0.28,0.17,0.4,0.3c0.12,0.14,0.19,0.27,0.24,0.39
		c0.04,0.13,0.06,0.27,0.05,0.44l-0.01,0.11c-0.01,0.13-0.04,0.24-0.08,0.35c-0.04,0.1-0.11,0.2-0.19,0.31
		c-0.07,0.09-0.14,0.15-0.2,0.18c-0.06,0.04-0.14,0.07-0.24,0.1l-0.18,0.06l0.09,0.17l0.69,1.28l-0.62-0.05l-0.75-1.37l-0.55-0.04
		l-0.1,1.3l-0.5-0.04L37.83,20.12z M38.92,22.13L38.92,22.13c0.1,0.01,0.19,0,0.27-0.03c0.07-0.03,0.15-0.07,0.22-0.14
		c0.08-0.07,0.14-0.14,0.18-0.23c0.04-0.07,0.06-0.16,0.07-0.27c0.01-0.1,0-0.19-0.03-0.27c-0.02-0.07-0.07-0.15-0.14-0.24v0
		c-0.06-0.07-0.15-0.13-0.26-0.18c-0.1-0.04-0.21-0.07-0.33-0.08l-0.45-0.03l-0.15-0.01l-0.01,0.16l-0.08,1.11l-0.01,0.16l0.15,0.01
		l0.19,0.02l0.12,0.01L38.92,22.13z"/>
</g>
<g>
	<path d="M44.72,25l-0.51-0.15l-0.1-0.67l-0.76-0.22l-0.76-0.21l-0.43,0.51l-0.51-0.14l2.56-3.18L44.72,25z M43.45,23.59l0.59,0.17
		c-0.03-0.25-0.06-0.52-0.09-0.81c-0.02-0.29-0.05-0.55-0.08-0.81c-0.16,0.2-0.33,0.41-0.5,0.64c-0.17,0.23-0.34,0.45-0.5,0.64
		L43.45,23.59z"/>
</g>
<g>
	<path d="M48.81,22.66l0.74,0.38l-0.22,0.44l-0.74-0.38l-0.14-0.07l-0.07,0.14l-1.4,2.74l-0.44-0.23l1.4-2.74L48,22.81l-0.14-0.07
		l-0.74-0.38l0.22-0.44l0.74,0.38L48.81,22.66z"/>
</g>
<g>
	<path d="M53.24,25.36l-0.29,0.4l-1.19-0.85l-0.13-0.09l-0.09,0.13l-0.47,0.66l-0.09,0.13l0.13,0.09l0.86,0.61l-0.29,0.4l-0.86-0.61
		l-0.13-0.09l-0.09,0.13l-0.47,0.66l-0.09,0.13l0.13,0.09L51.37,28l-0.29,0.4l-1.19-0.85l-0.53-0.38l2.16-3.05L53.24,25.36z"/>
</g>
<g>
	<path d="M56.41,28.17l0.07,0.08c0.09,0.1,0.16,0.2,0.22,0.31c0.06,0.11,0.11,0.23,0.15,0.34c0.04,0.12,0.06,0.24,0.08,0.36
		c0.01,0.06,0.01,0.12,0.02,0.21l-0.5-0.03c0-0.13-0.03-0.26-0.07-0.38c-0.05-0.17-0.14-0.32-0.27-0.47
		c-0.13-0.15-0.27-0.26-0.42-0.33c-0.16-0.08-0.33-0.13-0.52-0.14c-0.19-0.01-0.37,0.01-0.54,0.07c-0.17,0.06-0.33,0.15-0.47,0.27
		c-0.14,0.12-0.25,0.27-0.33,0.43c-0.08,0.16-0.13,0.33-0.14,0.52c-0.01,0.19,0.01,0.37,0.06,0.54c0.06,0.17,0.15,0.33,0.27,0.47
		c0.1,0.11,0.21,0.2,0.33,0.28c0.12,0.07,0.25,0.13,0.39,0.16c0.12,0.03,0.24,0.04,0.35,0.04c0.12,0,0.23-0.02,0.34-0.05l0.24-0.07
		l-0.16-0.19l-0.65-0.75l0.35-0.3l0.03,0.03l1.13,1.3c-0.19,0.18-0.4,0.31-0.62,0.4c-0.26,0.11-0.53,0.15-0.82,0.13
		c-0.26-0.02-0.5-0.08-0.71-0.19c-0.21-0.11-0.41-0.26-0.58-0.46c-0.17-0.2-0.3-0.41-0.37-0.64c-0.08-0.23-0.11-0.47-0.09-0.73
		c0.02-0.27,0.08-0.51,0.19-0.72c0.11-0.21,0.26-0.41,0.46-0.58c0.2-0.17,0.41-0.3,0.64-0.37c0.22-0.08,0.47-0.11,0.74-0.09
		c0.26,0.02,0.5,0.08,0.72,0.19C56.09,27.88,56.26,28,56.41,28.17L56.41,28.17z"/>
</g>
<g>
	<path d="M59.02,31.5l0.27,0.42l-3.13,2.01l-0.27-0.42L59.02,31.5z"/>
</g>
<g>
	<path d="M58.33,38.33l-0.2-0.5l0.47-0.48l-0.29-0.74l-0.29-0.73l-0.67-0.03l-0.2-0.5l4.08,0.11L58.33,38.33z M58.68,36.47
		l0.22,0.57c0.18-0.18,0.38-0.37,0.59-0.56c0.21-0.19,0.41-0.38,0.59-0.56c-0.26-0.01-0.53-0.01-0.81-0.01c-0.29,0-0.56,0-0.81-0.01
		L58.68,36.47z"/>
</g>
<g>
	<path d="M59.61,40.98c0.04,0.07,0.1,0.12,0.16,0.17c0.06,0.05,0.13,0.08,0.2,0.1s0.15,0.02,0.23,0c0.07-0.01,0.12-0.04,0.17-0.08
		c0.05-0.04,0.09-0.09,0.12-0.14s0.05-0.12,0.07-0.19c0.02-0.07,0.03-0.14,0.04-0.21c0.01-0.06,0.01-0.13,0.02-0.21
		c0.01-0.17,0.03-0.33,0.07-0.47c0.04-0.14,0.11-0.27,0.2-0.39c0.06-0.08,0.14-0.15,0.23-0.21c0.09-0.06,0.19-0.1,0.29-0.12
		c0.14-0.03,0.28-0.04,0.42-0.01c0.14,0.02,0.27,0.07,0.39,0.15s0.22,0.17,0.3,0.28s0.14,0.25,0.17,0.39
		c0.03,0.13,0.04,0.26,0.02,0.38c-0.02,0.13-0.06,0.25-0.11,0.36c-0.1,0.19-0.24,0.34-0.43,0.44l-0.21-0.46
		c0.07-0.04,0.13-0.1,0.18-0.18c0.08-0.14,0.11-0.28,0.07-0.43c-0.02-0.07-0.05-0.14-0.09-0.2c-0.04-0.06-0.1-0.11-0.16-0.15
		c-0.06-0.04-0.13-0.07-0.21-0.08c-0.07-0.01-0.15-0.01-0.22,0c-0.05,0.01-0.1,0.03-0.14,0.06c-0.04,0.03-0.08,0.06-0.11,0.09
		c-0.03,0.03-0.05,0.07-0.07,0.12c-0.02,0.05-0.04,0.09-0.05,0.13c-0.01,0.04-0.02,0.09-0.03,0.15c-0.01,0.06-0.02,0.1-0.02,0.14
		c0,0.04-0.01,0.09-0.01,0.14c0,0.05-0.01,0.1-0.01,0.13c-0.01,0.09-0.03,0.19-0.05,0.28c-0.02,0.09-0.06,0.18-0.1,0.26
		s-0.09,0.17-0.15,0.23c-0.06,0.07-0.13,0.13-0.21,0.18c-0.08,0.05-0.17,0.09-0.26,0.11c-0.14,0.03-0.29,0.03-0.43,0
		c-0.14-0.03-0.27-0.09-0.39-0.17c-0.12-0.08-0.22-0.18-0.3-0.3c-0.09-0.12-0.15-0.25-0.18-0.39c-0.04-0.16-0.04-0.31-0.01-0.47
		c0.03-0.16,0.09-0.31,0.18-0.44c0.09-0.14,0.21-0.24,0.34-0.33l0.22,0.46c-0.1,0.07-0.17,0.17-0.21,0.29
		c-0.04,0.13-0.05,0.25-0.02,0.37C59.53,40.84,59.56,40.91,59.61,40.98z"/>
</g>
<g>
	<path d="M57.92,53.76l0.1-0.27l0.36-0.03l0.15-0.4l0.15-0.4l-0.26-0.25l0.1-0.27l1.62,1.51L57.92,53.76z M58.74,53.13l-0.11,0.31
		c0.14-0.01,0.28-0.01,0.44-0.02c0.16,0,0.3-0.01,0.44-0.01c-0.1-0.09-0.21-0.19-0.33-0.29c-0.12-0.1-0.23-0.2-0.33-0.29
		L58.74,53.13z"/>
</g>
<g>
	<path d="M57.74,55.7l0.22,0.1l1.02,0.49l-0.12,0.24L57,55.65l1.84-0.58L58.7,55l-1.1-0.53l0.12-0.24l1.84,0.88L57.74,55.7z"/>
</g>
<g>
	<path d="M55.89,57.6l0.15-0.25l0.36,0.04l0.22-0.37l0.22-0.37l-0.21-0.3l0.15-0.25l1.29,1.8L55.89,57.6z M56.81,57.14l-0.17,0.28
		c0.14,0.02,0.28,0.04,0.43,0.07c0.15,0.03,0.3,0.05,0.44,0.07c-0.08-0.11-0.17-0.23-0.27-0.35c-0.1-0.12-0.18-0.24-0.26-0.35
		L56.81,57.14z M58.36,58.44l-0.1-0.47l0.08-0.03l0.19,0.44L58.36,58.44z"/>
</g>
<g>
	<path d="M57.04,59.44l-1.34-1l-0.07-0.05l-0.05,0.07l-0.48,0.64l-0.21-0.16l0.69-0.92l1.62,1.21L57.04,59.44z"/>
</g>
<g>
	<path d="M56.13,60.61l-0.17,0.21l-1.56-1.28l0.17-0.21L56.13,60.61z"/>
</g>
<g>
	<path d="M53.8,60.64c-0.02,0.04-0.02,0.08-0.03,0.12c0,0.04,0,0.08,0.02,0.12c0.01,0.04,0.04,0.08,0.07,0.1
		c0.03,0.03,0.06,0.04,0.09,0.05s0.07,0.01,0.1,0.01s0.07-0.01,0.11-0.03c0.04-0.02,0.07-0.03,0.1-0.05
		c0.03-0.02,0.06-0.04,0.1-0.06c0.08-0.05,0.16-0.09,0.23-0.11c0.08-0.03,0.16-0.04,0.24-0.03c0.06,0,0.11,0.01,0.16,0.04
		s0.1,0.05,0.14,0.09c0.06,0.05,0.11,0.12,0.14,0.19c0.03,0.07,0.05,0.14,0.05,0.22c0,0.08-0.01,0.15-0.03,0.22
		c-0.03,0.07-0.07,0.14-0.12,0.2c-0.05,0.05-0.1,0.1-0.17,0.13c-0.06,0.03-0.13,0.05-0.2,0.06c-0.12,0.01-0.23,0-0.33-0.06
		l0.14-0.24c0.04,0.02,0.09,0.03,0.13,0.02c0.08,0,0.16-0.04,0.21-0.1c0.03-0.03,0.05-0.06,0.06-0.1c0.01-0.04,0.02-0.08,0.02-0.12
		c0-0.04-0.01-0.08-0.03-0.12c-0.02-0.04-0.04-0.07-0.07-0.1c-0.02-0.02-0.04-0.04-0.07-0.04c-0.03-0.01-0.05-0.02-0.07-0.02
		s-0.05,0-0.08,0c-0.03,0-0.05,0.01-0.08,0.02c-0.02,0.01-0.05,0.02-0.07,0.03c-0.03,0.01-0.05,0.03-0.07,0.04
		c-0.02,0.01-0.04,0.02-0.07,0.04c-0.03,0.02-0.05,0.03-0.06,0.03c-0.05,0.02-0.09,0.05-0.14,0.06c-0.05,0.02-0.1,0.03-0.15,0.04
		c-0.05,0.01-0.1,0.01-0.15,0.01s-0.1-0.02-0.14-0.04c-0.05-0.02-0.09-0.05-0.13-0.08c-0.06-0.05-0.1-0.12-0.13-0.19
		c-0.03-0.07-0.05-0.15-0.04-0.23c0-0.08,0.01-0.15,0.04-0.23c0.03-0.08,0.07-0.14,0.12-0.2c0.06-0.06,0.13-0.11,0.21-0.15
		c0.08-0.04,0.17-0.05,0.25-0.06c0.09,0,0.17,0.02,0.25,0.05l-0.14,0.24c-0.06-0.02-0.13-0.02-0.2,0s-0.13,0.05-0.17,0.1
		C53.84,60.56,53.82,60.6,53.8,60.64z"/>
</g>
<g>
	<path d="M54.24,62.66l-0.2,0.18l-1.36-1.49l0.2-0.18L54.24,62.66z"/>
</g>
<g>
	<path d="M51.95,62.37c-0.02,0.04-0.03,0.08-0.04,0.12c-0.01,0.04-0.01,0.08,0,0.12c0.01,0.04,0.03,0.08,0.06,0.11
		c0.02,0.03,0.05,0.05,0.08,0.06c0.03,0.01,0.06,0.02,0.1,0.02c0.03,0,0.07,0,0.11-0.01c0.04-0.01,0.08-0.02,0.11-0.03
		c0.03-0.01,0.07-0.03,0.11-0.04c0.09-0.04,0.17-0.06,0.25-0.08c0.08-0.02,0.16-0.01,0.24,0c0.06,0.01,0.11,0.03,0.16,0.06
		c0.05,0.03,0.09,0.07,0.13,0.11c0.05,0.06,0.09,0.13,0.11,0.2c0.02,0.07,0.03,0.15,0.02,0.22c-0.01,0.08-0.03,0.15-0.06,0.22
		c-0.04,0.07-0.08,0.13-0.15,0.18c-0.06,0.05-0.12,0.08-0.18,0.1c-0.07,0.02-0.13,0.03-0.2,0.03c-0.12,0-0.22-0.04-0.32-0.1
		l0.17-0.22c0.04,0.02,0.08,0.04,0.13,0.04c0.09,0.01,0.16-0.01,0.22-0.07c0.03-0.03,0.06-0.06,0.08-0.09
		c0.02-0.04,0.03-0.08,0.03-0.11c0-0.04,0-0.08-0.01-0.12c-0.01-0.04-0.03-0.07-0.06-0.11c-0.02-0.02-0.04-0.04-0.06-0.06
		c-0.02-0.01-0.05-0.02-0.07-0.03s-0.05-0.01-0.08-0.01c-0.03,0-0.05,0-0.08,0.01c-0.02,0-0.05,0.01-0.08,0.02
		c-0.03,0.01-0.05,0.02-0.07,0.03c-0.02,0.01-0.04,0.02-0.07,0.03c-0.03,0.01-0.05,0.02-0.06,0.03c-0.05,0.02-0.1,0.03-0.15,0.04
		c-0.05,0.01-0.1,0.01-0.15,0.01c-0.05,0-0.1,0-0.15-0.02c-0.05-0.01-0.09-0.03-0.14-0.06c-0.04-0.03-0.08-0.06-0.12-0.1
		c-0.05-0.06-0.09-0.13-0.11-0.21c-0.02-0.08-0.02-0.16-0.01-0.23c0.01-0.08,0.04-0.15,0.07-0.22c0.04-0.07,0.09-0.13,0.15-0.18
		c0.07-0.05,0.14-0.09,0.23-0.12c0.08-0.02,0.17-0.03,0.26-0.02c0.09,0.01,0.17,0.04,0.24,0.09l-0.17,0.22
		c-0.06-0.03-0.12-0.04-0.19-0.03c-0.07,0.01-0.13,0.04-0.18,0.08C52,62.3,51.97,62.33,51.95,62.37z"/>
</g>
<g>
</g>
<g>
	<path d="M50.95,65.31l-0.69-0.41l-0.14-0.08l0.01,0.16l0.05,0.8l-0.26,0.16l-0.06-1.28l-0.01-0.04l-0.44-0.73l0.23-0.14l0.44,0.73
		l0.03,0.03l1.11,0.64L50.95,65.31z"/>
</g>
<g>
</g>
<g>
	<path d="M47.72,67.1c-0.12,0.04-0.24,0.06-0.35,0.07c-0.13,0-0.27-0.02-0.39-0.07h0c-0.12-0.05-0.22-0.12-0.31-0.22
		c-0.09-0.1-0.16-0.21-0.21-0.33c-0.05-0.12-0.08-0.25-0.09-0.38c-0.01-0.13,0.01-0.26,0.06-0.38v0c0.05-0.13,0.13-0.24,0.22-0.33
		c0.1-0.09,0.21-0.17,0.34-0.23l0.46-0.2l0.79,1.86l-0.46,0.2L47.72,67.1z M47.08,65.47c-0.1,0.04-0.18,0.1-0.25,0.16
		c-0.07,0.07-0.12,0.14-0.16,0.23c-0.04,0.09-0.05,0.18-0.05,0.28c0,0.09,0.03,0.19,0.07,0.29c0.04,0.1,0.1,0.18,0.16,0.25
		c0.07,0.07,0.14,0.12,0.24,0.16c0.09,0.04,0.18,0.05,0.28,0.05c0.1,0,0.19-0.03,0.29-0.07l0.13-0.06l0.08-0.03l-0.03-0.08
		l-0.51-1.21l-0.03-0.08l-0.08,0.03L47.08,65.47L47.08,65.47z"/>
</g>
<g>
	<path d="M45.2,68.1l-0.09-0.25l0.75-0.28l0.08-0.03l-0.03-0.08l-0.15-0.41l-0.03-0.08L45.64,67l-0.54,0.2l-0.09-0.25l0.54-0.2
		l0.08-0.03l-0.03-0.08l-0.15-0.41l-0.03-0.08l-0.08,0.03l-0.75,0.28l-0.09-0.25l0.75-0.28l0.33-0.12l0.7,1.9L45.2,68.1z"/>
</g>
<g>
	<path d="M43.47,66.78c-0.04,0.03-0.06,0.06-0.09,0.09c-0.02,0.03-0.04,0.07-0.05,0.11c-0.01,0.04-0.01,0.08,0,0.13
		c0.01,0.04,0.02,0.07,0.05,0.09c0.02,0.03,0.05,0.05,0.08,0.06c0.03,0.02,0.06,0.03,0.1,0.04c0.04,0.01,0.08,0.02,0.11,0.02
		c0.04,0,0.07,0.01,0.11,0.01c0.09,0,0.18,0.01,0.25,0.03s0.15,0.05,0.22,0.1c0.05,0.03,0.08,0.07,0.12,0.12
		c0.03,0.05,0.06,0.1,0.07,0.16c0.02,0.08,0.02,0.15,0.01,0.23c-0.01,0.08-0.04,0.15-0.07,0.21c-0.04,0.07-0.09,0.12-0.15,0.17
		s-0.13,0.08-0.21,0.1c-0.07,0.02-0.14,0.02-0.21,0.02c-0.07-0.01-0.14-0.03-0.2-0.06c-0.1-0.05-0.19-0.13-0.24-0.23l0.25-0.12
		c0.02,0.04,0.06,0.07,0.1,0.09c0.08,0.04,0.15,0.05,0.23,0.03c0.04-0.01,0.08-0.03,0.11-0.05c0.03-0.02,0.06-0.05,0.08-0.09
		c0.02-0.04,0.03-0.07,0.04-0.11c0.01-0.04,0-0.08-0.01-0.12c-0.01-0.03-0.02-0.05-0.03-0.08c-0.01-0.02-0.03-0.04-0.05-0.06
		c-0.02-0.01-0.04-0.03-0.07-0.04s-0.05-0.02-0.07-0.02c-0.02-0.01-0.05-0.01-0.08-0.01c-0.03,0-0.06,0-0.08-0.01s-0.05,0-0.08,0
		c-0.03,0-0.05,0-0.07,0c-0.05,0-0.1-0.01-0.15-0.02c-0.05-0.01-0.1-0.03-0.15-0.05c-0.05-0.02-0.09-0.05-0.13-0.08
		c-0.04-0.03-0.07-0.07-0.1-0.11c-0.03-0.04-0.05-0.09-0.06-0.14c-0.02-0.08-0.02-0.16-0.01-0.23c0.01-0.08,0.04-0.15,0.08-0.21
		c0.04-0.06,0.09-0.12,0.16-0.17c0.06-0.05,0.14-0.08,0.21-0.1c0.08-0.02,0.17-0.03,0.26-0.01c0.09,0.01,0.17,0.04,0.24,0.09
		c0.07,0.05,0.13,0.11,0.18,0.18l-0.25,0.13c-0.04-0.05-0.09-0.09-0.16-0.11c-0.07-0.02-0.14-0.02-0.2-0.01
		C43.54,66.73,43.5,66.75,43.47,66.78z"/>
</g>
<g>
	<path d="M40.79,67.03l0.29-0.04l0.2,0.31l0.42-0.07l0.42-0.07l0.1-0.35l0.29-0.04l-0.54,2.15L40.79,67.03z M41.73,67.44l-0.33,0.05
		c0.07,0.12,0.15,0.24,0.23,0.38c0.08,0.14,0.15,0.26,0.23,0.38c0.03-0.13,0.07-0.28,0.1-0.43c0.03-0.15,0.07-0.29,0.1-0.43
		L41.73,67.44z"/>
</g>
<g>
	<path d="M40.39,69.14l-0.63,0.04c-0.1,0.01-0.2-0.01-0.29-0.04c-0.09-0.03-0.17-0.07-0.24-0.13c-0.07-0.07-0.12-0.13-0.15-0.19
		c-0.03-0.07-0.05-0.14-0.06-0.24l0-0.06c0-0.07,0-0.13,0.02-0.19c0.02-0.06,0.04-0.12,0.08-0.18c0.03-0.05,0.06-0.09,0.09-0.11
		c0.03-0.02,0.07-0.05,0.12-0.07l0.09-0.04l-0.06-0.08l-0.46-0.64l0.34-0.02l0.5,0.68l0.3-0.02l-0.04-0.71l0.27-0.01L40.39,69.14z
		 M39.66,68.14L39.66,68.14c-0.06,0-0.1,0.01-0.15,0.03c-0.04,0.02-0.07,0.05-0.11,0.09c-0.04,0.04-0.06,0.09-0.08,0.13
		c-0.01,0.04-0.02,0.09-0.02,0.15c0,0.05,0.01,0.1,0.03,0.14c0.02,0.04,0.05,0.08,0.09,0.12v0c0.04,0.04,0.09,0.06,0.15,0.08
		c0.06,0.02,0.12,0.02,0.19,0.02l0.25-0.01l0.08,0l0-0.09l-0.03-0.6l0-0.08l-0.08,0l-0.1,0l-0.07,0L39.66,68.14z"/>
</g>
<g>
	<path d="M38.42,69.24l-0.63,0c-0.1,0-0.2-0.02-0.29-0.05c-0.08-0.03-0.16-0.08-0.23-0.14c-0.07-0.07-0.12-0.13-0.15-0.2
		c-0.03-0.07-0.04-0.15-0.04-0.24l0-0.06c0-0.07,0.01-0.13,0.03-0.19c0.02-0.06,0.05-0.11,0.09-0.18c0.04-0.05,0.07-0.08,0.1-0.11
		c0.03-0.02,0.07-0.05,0.12-0.07l0.09-0.04l-0.06-0.09l-0.43-0.66l0.34,0l0.46,0.71l0.3,0l0-0.71l0.27,0L38.42,69.24z M37.74,68.21
		L37.74,68.21c-0.06,0-0.1,0.01-0.15,0.03c-0.04,0.02-0.08,0.05-0.12,0.09c-0.04,0.04-0.07,0.08-0.09,0.13
		c-0.02,0.04-0.03,0.09-0.02,0.15c0,0.05,0.01,0.1,0.03,0.15c0.02,0.04,0.05,0.08,0.09,0.12v0c0.04,0.04,0.09,0.06,0.15,0.08
		c0.06,0.02,0.12,0.03,0.18,0.03l0.25,0h0.08l0-0.09l0-0.6l0-0.08h-0.08h-0.1h-0.07L37.74,68.21z"/>
</g>
<g>
	<path d="M35.01,69.03c-0.11-0.06-0.22-0.15-0.31-0.26c-0.09-0.11-0.16-0.23-0.19-0.35c-0.04-0.13-0.05-0.26-0.04-0.4
		c0.01-0.14,0.05-0.27,0.11-0.38c0.06-0.12,0.15-0.22,0.26-0.31c0.11-0.09,0.23-0.15,0.35-0.19c0.13-0.04,0.26-0.05,0.4-0.04
		c0.14,0.01,0.27,0.05,0.39,0.11c0.12,0.06,0.22,0.15,0.31,0.26c0.09,0.11,0.16,0.23,0.19,0.35c0.04,0.12,0.05,0.25,0.04,0.4
		c-0.01,0.14-0.05,0.27-0.11,0.38c-0.06,0.11-0.14,0.22-0.26,0.31c-0.11,0.09-0.23,0.16-0.35,0.19c-0.12,0.04-0.26,0.05-0.4,0.04
		C35.25,69.13,35.12,69.09,35.01,69.03z M35.71,68.84c0.09-0.03,0.18-0.08,0.26-0.14c0.08-0.07,0.14-0.14,0.19-0.23
		c0.04-0.08,0.07-0.18,0.08-0.28c0.01-0.1,0-0.2-0.03-0.29c-0.03-0.09-0.07-0.18-0.14-0.26c-0.06-0.08-0.14-0.14-0.22-0.19
		c-0.09-0.05-0.18-0.07-0.28-0.08c-0.1-0.01-0.2,0-0.29,0.03c-0.09,0.03-0.18,0.08-0.26,0.14c-0.08,0.07-0.14,0.14-0.19,0.23
		c-0.05,0.08-0.07,0.18-0.08,0.28c-0.01,0.1,0,0.2,0.03,0.29c0.03,0.09,0.08,0.18,0.14,0.26c0.07,0.08,0.14,0.14,0.23,0.19
		c0.09,0.04,0.18,0.07,0.28,0.08C35.52,68.88,35.62,68.87,35.71,68.84z"/>
</g>
<g>
	<path d="M33.39,68.84l0.32-1.64l0.02-0.08l-0.08-0.02l-0.78-0.15l0.05-0.26l1.13,0.22l-0.39,1.98L33.39,68.84z"/>
</g>
<g>
	<path d="M31.57,68.43l0.49-1.6l0.02-0.08l-0.08-0.02l-0.76-0.23l0.08-0.25l1.1,0.33l-0.59,1.93L31.57,68.43z"/>
</g>
<g>
	<path d="M29.18,67.58c-0.1-0.09-0.17-0.2-0.24-0.33c-0.06-0.13-0.1-0.26-0.1-0.39c-0.01-0.13,0.01-0.26,0.06-0.4
		c0.05-0.13,0.12-0.25,0.2-0.34s0.2-0.17,0.33-0.23c0.13-0.06,0.26-0.09,0.39-0.1c0.13-0.01,0.26,0.01,0.39,0.06
		c0.13,0.05,0.25,0.12,0.35,0.2c0.1,0.09,0.18,0.2,0.24,0.33c0.06,0.13,0.09,0.26,0.1,0.39c0.01,0.13-0.01,0.26-0.06,0.39
		c-0.05,0.13-0.12,0.25-0.2,0.34c-0.08,0.09-0.19,0.17-0.32,0.24c-0.13,0.06-0.26,0.09-0.39,0.1c-0.13,0.01-0.26-0.01-0.4-0.06
		C29.38,67.73,29.27,67.66,29.18,67.58z M29.9,67.57c0.1-0.01,0.19-0.03,0.28-0.07c0.09-0.04,0.17-0.1,0.24-0.17
		c0.06-0.07,0.11-0.16,0.15-0.25c0.04-0.1,0.05-0.19,0.05-0.29c0-0.09-0.03-0.19-0.07-0.28c-0.04-0.09-0.1-0.17-0.17-0.24
		c-0.07-0.07-0.16-0.12-0.25-0.15c-0.09-0.03-0.19-0.05-0.29-0.04c-0.1,0-0.19,0.03-0.28,0.07c-0.1,0.04-0.17,0.1-0.24,0.17
		c-0.06,0.07-0.12,0.15-0.15,0.25c-0.03,0.1-0.05,0.19-0.04,0.29c0.01,0.09,0.03,0.19,0.07,0.29c0.04,0.09,0.1,0.17,0.17,0.24
		c0.07,0.07,0.16,0.12,0.25,0.15C29.71,67.56,29.8,67.57,29.9,67.57z"/>
</g>
<g>
</g>
<g>
	<path d="M26.23,66.25c-0.1-0.07-0.19-0.15-0.26-0.25c-0.08-0.11-0.14-0.23-0.17-0.36v0c-0.03-0.12-0.03-0.25-0.01-0.38
		c0.03-0.13,0.08-0.25,0.14-0.37c0.07-0.12,0.15-0.22,0.26-0.3c0.1-0.08,0.22-0.14,0.34-0.17h0c0.13-0.03,0.26-0.04,0.4-0.02
		c0.13,0.02,0.26,0.07,0.39,0.14l0.43,0.26l-1.04,1.73l-0.43-0.26L26.23,66.25z M27.18,64.78c-0.09-0.06-0.19-0.09-0.28-0.11
		c-0.09-0.02-0.19-0.02-0.28,0.01c-0.09,0.02-0.18,0.07-0.25,0.13c-0.07,0.06-0.14,0.13-0.2,0.23c-0.06,0.09-0.09,0.19-0.11,0.28
		c-0.02,0.09-0.01,0.19,0.01,0.28c0.02,0.09,0.06,0.18,0.12,0.26c0.06,0.08,0.14,0.14,0.23,0.2l0.12,0.07l0.07,0.04l0.04-0.07
		l0.68-1.13l0.04-0.07l-0.07-0.04L27.18,64.78L27.18,64.78z"/>
</g>
<g>
	<path d="M23.94,64.81l0.15-0.22l0.66,0.44l0.07,0.05L24.87,65l0.25-0.37l0.05-0.07l-0.07-0.05l-0.48-0.32l0.15-0.22l0.48,0.32
		l0.07,0.05l0.05-0.07l0.25-0.37l0.05-0.07l-0.07-0.05l-0.66-0.44l0.15-0.22l0.66,0.44l0.29,0.2l-1.13,1.69L23.94,64.81z"/>
</g>
<g>
</g>
<g>
	<path d="M22.36,61.71l-0.16,0.18l-0.76,0.84l-0.2-0.18l1.38-1.53l0.04,1.93l0.1-0.12l0.82-0.91l0.2,0.18l-1.37,1.52L22.36,61.71z"
		/>
</g>
<g>
	<path d="M19.91,61.13l0.2-0.18l0.54,0.59l0.06,0.06l0.06-0.06l0.33-0.3l0.06-0.06l-0.06-0.06l-0.39-0.42l0.2-0.18l0.39,0.42
		l0.06,0.06l0.06-0.06l0.33-0.3l0.06-0.06l-0.06-0.06l-0.54-0.59l0.2-0.18l0.54,0.59l0.24,0.26l-1.5,1.37L19.91,61.13z"/>
</g>
<g>
	<path d="M18.91,59.9l-0.04-0.05c-0.04-0.06-0.08-0.12-0.11-0.18c-0.03-0.06-0.05-0.13-0.07-0.19c-0.02-0.06-0.03-0.13-0.03-0.2
		c0-0.03,0-0.07,0-0.11l0.27,0.04c0,0.07,0,0.14,0.02,0.21c0.02,0.09,0.07,0.18,0.13,0.26c0.06,0.08,0.14,0.15,0.22,0.2
		c0.08,0.05,0.17,0.08,0.28,0.09c0.1,0.01,0.2,0.01,0.29-0.02c0.09-0.03,0.18-0.07,0.26-0.13c0.08-0.06,0.15-0.13,0.2-0.22
		c0.05-0.08,0.08-0.17,0.1-0.28c0.01-0.1,0.01-0.2-0.01-0.29c-0.02-0.09-0.07-0.18-0.13-0.26c-0.05-0.06-0.1-0.12-0.17-0.16
		c-0.06-0.04-0.13-0.08-0.21-0.1c-0.06-0.02-0.13-0.03-0.19-0.03c-0.06,0-0.13,0-0.19,0.01l-0.13,0.03l0.08,0.11l0.32,0.43
		l-0.2,0.15L19.6,59.2l-0.56-0.75c0.11-0.09,0.23-0.15,0.35-0.19c0.14-0.05,0.29-0.06,0.45-0.04c0.14,0.02,0.27,0.06,0.38,0.13
		c0.11,0.07,0.21,0.16,0.3,0.27c0.09,0.12,0.15,0.24,0.18,0.36c0.03,0.13,0.04,0.26,0.02,0.4c-0.02,0.14-0.06,0.27-0.13,0.38
		c-0.07,0.11-0.15,0.21-0.27,0.3c-0.11,0.08-0.23,0.14-0.36,0.18c-0.12,0.03-0.26,0.04-0.4,0.02c-0.14-0.02-0.27-0.06-0.38-0.13
		C19.07,60.07,18.98,60,18.91,59.9L18.91,59.9z"/>
</g>
<g>
	<path d="M17.23,57.27c-0.02-0.13-0.01-0.26,0.02-0.4c0.03-0.14,0.09-0.26,0.16-0.37c0.08-0.11,0.18-0.2,0.3-0.27
		c0.12-0.07,0.25-0.12,0.38-0.14c0.13-0.02,0.26-0.01,0.4,0.02c0.14,0.03,0.26,0.09,0.37,0.17c0.11,0.08,0.2,0.18,0.27,0.29
		c0.07,0.12,0.12,0.25,0.14,0.38s0.01,0.26-0.02,0.4c-0.03,0.14-0.09,0.26-0.17,0.37c-0.07,0.1-0.17,0.19-0.3,0.27
		c-0.12,0.08-0.25,0.12-0.37,0.14c-0.13,0.02-0.26,0.01-0.4-0.02c-0.14-0.03-0.26-0.09-0.37-0.16s-0.19-0.17-0.27-0.3
		C17.3,57.52,17.25,57.39,17.23,57.27z M17.81,57.72c0.08,0.06,0.17,0.1,0.27,0.12c0.1,0.02,0.2,0.03,0.29,0.01
		c0.09-0.02,0.19-0.05,0.27-0.1c0.09-0.05,0.16-0.12,0.22-0.2c0.06-0.08,0.1-0.17,0.12-0.27c0.03-0.1,0.03-0.19,0.01-0.29
		c-0.02-0.1-0.05-0.19-0.1-0.28c-0.05-0.09-0.12-0.16-0.2-0.22c-0.08-0.06-0.17-0.1-0.27-0.12c-0.1-0.02-0.2-0.03-0.29-0.01
		c-0.09,0.01-0.19,0.05-0.27,0.1c-0.09,0.05-0.16,0.12-0.22,0.2c-0.05,0.08-0.09,0.17-0.12,0.27c-0.02,0.1-0.03,0.2-0.01,0.29
		c0.02,0.1,0.05,0.19,0.1,0.27C17.66,57.59,17.73,57.66,17.81,57.72z"/>
</g>
<g>
	<path d="M16.1,55.17c-0.03-0.06-0.05-0.13-0.06-0.2c-0.01-0.07-0.02-0.13-0.02-0.2c0-0.07,0.01-0.14,0.02-0.2
		c0.01-0.04,0.02-0.08,0.03-0.11l0.25,0.1c-0.02,0.07-0.03,0.14-0.03,0.21c0,0.1,0.02,0.19,0.06,0.29c0.04,0.09,0.1,0.17,0.17,0.24
		c0.07,0.07,0.15,0.12,0.25,0.16c0.1,0.04,0.19,0.06,0.29,0.06v0c0.1,0,0.19-0.02,0.29-0.06c0.1-0.04,0.18-0.09,0.24-0.16
		c0.07-0.07,0.12-0.15,0.16-0.25c0.04-0.09,0.06-0.19,0.06-0.29c0-0.1-0.02-0.19-0.06-0.29c-0.04-0.09-0.09-0.17-0.16-0.24
		c-0.05-0.05-0.11-0.09-0.17-0.12l0.1-0.25c0.03,0.02,0.06,0.03,0.1,0.06c0.06,0.04,0.11,0.08,0.16,0.12
		c0.05,0.05,0.1,0.1,0.13,0.15c0.04,0.06,0.07,0.12,0.1,0.18c0.06,0.13,0.08,0.26,0.09,0.39c0,0.13-0.02,0.26-0.08,0.39
		c-0.05,0.13-0.13,0.25-0.22,0.34c-0.09,0.09-0.2,0.17-0.33,0.22c-0.13,0.06-0.26,0.08-0.39,0.09s-0.26-0.02-0.4-0.08
		c-0.13-0.05-0.25-0.13-0.34-0.21c-0.07-0.07-0.13-0.14-0.17-0.23L16.1,55.17z"/>
</g>
<g>
	<path d="M15.63,53.98l-0.09-0.25l1.89-0.7l0.09,0.25L15.63,53.98z"/>
</g>
<g>
	<path d="M14.95,51.69c0.02-0.13,0.06-0.25,0.14-0.38c0.07-0.12,0.16-0.22,0.26-0.3c0.11-0.08,0.23-0.14,0.36-0.17
		c0.14-0.04,0.27-0.04,0.4-0.03c0.13,0.02,0.25,0.06,0.38,0.14c0.12,0.07,0.22,0.16,0.3,0.26c0.08,0.11,0.14,0.23,0.17,0.36
		c0.04,0.14,0.05,0.27,0.03,0.4c-0.02,0.13-0.06,0.26-0.13,0.38c-0.07,0.12-0.16,0.23-0.26,0.3c-0.1,0.08-0.22,0.13-0.36,0.17
		c-0.14,0.04-0.27,0.04-0.4,0.03c-0.13-0.02-0.25-0.06-0.38-0.13c-0.13-0.07-0.23-0.16-0.3-0.26c-0.08-0.1-0.14-0.22-0.17-0.36
		C14.94,51.95,14.93,51.82,14.95,51.69z M15.37,52.28c0.06,0.08,0.14,0.14,0.22,0.19c0.09,0.05,0.18,0.09,0.28,0.1
		c0.09,0.01,0.19,0,0.29-0.02c0.1-0.03,0.19-0.07,0.26-0.13c0.08-0.06,0.14-0.13,0.19-0.22c0.05-0.08,0.08-0.18,0.1-0.28
		c0.01-0.1,0.01-0.19-0.02-0.29c-0.03-0.1-0.07-0.18-0.13-0.26c-0.06-0.08-0.13-0.14-0.22-0.19c-0.09-0.05-0.18-0.08-0.28-0.1
		c-0.09-0.01-0.19-0.01-0.29,0.02c-0.1,0.03-0.19,0.07-0.26,0.13c-0.07,0.06-0.14,0.13-0.19,0.22c-0.05,0.09-0.08,0.18-0.1,0.28
		c-0.01,0.1-0.01,0.19,0.02,0.29C15.26,52.12,15.31,52.21,15.37,52.28z"/>
</g>
<g>
	<path d="M16.17,49.52c-0.02-0.04-0.05-0.07-0.08-0.09s-0.07-0.04-0.11-0.06c-0.04-0.01-0.08-0.01-0.13-0.01
		c-0.04,0.01-0.07,0.02-0.09,0.04c-0.03,0.02-0.05,0.05-0.07,0.08c-0.02,0.03-0.03,0.06-0.04,0.1c-0.01,0.04-0.02,0.08-0.02,0.11
		s-0.01,0.07-0.01,0.11c-0.01,0.09-0.02,0.18-0.04,0.25c-0.02,0.08-0.06,0.15-0.11,0.21c-0.04,0.04-0.08,0.08-0.13,0.11
		c-0.05,0.03-0.1,0.05-0.16,0.06c-0.08,0.02-0.15,0.02-0.23,0c-0.08-0.01-0.15-0.04-0.21-0.08c-0.06-0.04-0.12-0.1-0.16-0.16
		c-0.04-0.06-0.07-0.13-0.09-0.21c-0.02-0.07-0.02-0.14-0.01-0.21c0.01-0.07,0.03-0.13,0.07-0.2c0.06-0.1,0.14-0.18,0.24-0.23
		l0.11,0.25c-0.04,0.02-0.07,0.06-0.1,0.1c-0.05,0.07-0.06,0.15-0.04,0.23c0.01,0.04,0.02,0.08,0.05,0.11s0.05,0.06,0.09,0.08
		c0.03,0.02,0.07,0.04,0.11,0.05c0.04,0.01,0.08,0.01,0.12,0c0.03-0.01,0.05-0.02,0.08-0.03c0.02-0.01,0.04-0.03,0.06-0.05
		c0.02-0.02,0.03-0.04,0.04-0.06c0.01-0.03,0.02-0.05,0.03-0.07c0.01-0.02,0.01-0.05,0.02-0.08c0.01-0.03,0.01-0.06,0.01-0.08
		c0-0.02,0-0.05,0.01-0.08c0-0.03,0.01-0.05,0.01-0.07c0.01-0.05,0.02-0.1,0.03-0.15c0.01-0.05,0.03-0.1,0.06-0.14
		c0.02-0.05,0.05-0.09,0.08-0.13c0.03-0.04,0.07-0.07,0.11-0.1c0.04-0.03,0.09-0.05,0.14-0.06c0.08-0.02,0.16-0.02,0.23,0
		c0.08,0.02,0.15,0.05,0.21,0.09c0.06,0.04,0.12,0.1,0.16,0.17c0.04,0.07,0.08,0.14,0.09,0.22c0.02,0.08,0.02,0.17,0,0.26
		s-0.05,0.17-0.1,0.24c-0.05,0.07-0.11,0.13-0.19,0.17l-0.11-0.25c0.05-0.04,0.09-0.09,0.12-0.16c0.03-0.07,0.03-0.13,0.02-0.2
		C16.21,49.59,16.19,49.55,16.17,49.52z"/>
</g>
<g>
	<defs>
		<rect id="SVGID_19_" width="680.15" height="88.49"/>
	</defs>
	<clipPath id="SVGID_20_">
		<use xlink:href="#SVGID_19_"  style="overflow:visible;"/>
	</clipPath>
	<g class="st20">
		<path d="M118.13,70.16h-6.76l-3.49-7.78H97.84H87.82l-3.49,7.78h-6.76l20.28-47.64L118.13,70.16z M97.84,57.3h7.73
			c-1.29-2.96-2.58-6.15-3.86-9.55c-1.28-3.41-2.56-6.6-3.82-9.59c-1.29,2.98-2.59,6.18-3.89,9.59c-1.3,3.41-2.59,6.59-3.86,9.55
			H97.84z"/>
		<path d="M136.76,23c2.96,0.17,5.68,0.76,8.16,1.78c2.92,1.16,5.52,2.88,7.81,5.14l0.03,0.03c2.09,2.09,3.66,4.62,4.7,7.57
			c1.04,2.95,1.56,5.98,1.56,9.09c0,3.13-0.52,6.16-1.56,9.09s-2.6,5.44-4.7,7.54l-0.03,0.03c-2.24,2.24-4.85,3.95-7.81,5.11
			c-2.92,1.19-6.08,1.78-9.49,1.78h-11.62V23h11.62H136.76z M135.49,63.87c2.52,0,4.82-0.39,6.92-1.17
			c2.07-0.76,3.92-1.95,5.55-3.55c1.59-1.63,2.77-3.5,3.55-5.62c0.78-2.07,1.17-4.4,1.17-6.98c0-2.54-0.39-4.86-1.17-6.95
			s-1.98-3.96-3.59-5.59c-1.59-1.57-3.45-2.77-5.59-3.62c-2.09-0.78-4.41-1.17-6.95-1.17h-3.33h-2v1.97v30.72v1.97h2h3.4H135.49z"/>
		<path d="M195.57,54.89v-5.62V22.87h6.32v48.15l-30.82-32.85v3.62v28.5h-6.32v-47.8L195.57,54.89z"/>
		<path d="M256.73,22.87v6.28h-18.57h-1.97v1.97v10.31v2h1.97h13.43v6.28h-13.43h-1.97v1.97V62v2h1.97h18.57v6.28h-18.57h-8.28
			V22.87H256.73z"/>
		<path d="M277.22,63.57c0.94-0.38,1.79-0.87,2.54-1.47c0.75-0.61,1.36-1.36,1.82-2.25c0.46-0.89,0.69-1.84,0.69-2.85
			c0.02-0.85-0.16-1.64-0.53-2.38s-0.85-1.36-1.42-1.88c-0.58-0.52-1.29-1-2.15-1.45c-0.85-0.45-1.67-0.81-2.44-1.09
			c-0.77-0.28-1.63-0.54-2.56-0.8c-2.09-0.58-3.95-1.33-5.57-2.24c-1.63-0.91-3.05-2.11-4.28-3.59c-0.84-1.01-1.48-2.14-1.94-3.41
			c-0.46-1.26-0.69-2.58-0.69-3.96c0-1.85,0.35-3.61,1.05-5.27c0.7-1.66,1.67-3.11,2.93-4.35c1.26-1.26,2.72-2.24,4.39-2.94
			c1.67-0.7,3.43-1.05,5.28-1.05c1.69,0,3.29,0.29,4.82,0.87c1.53,0.58,2.9,1.4,4.13,2.46c2.06,1.78,3.45,3.97,4.18,6.59l-6.3,1.33
			c-0.34-0.97-0.91-1.87-1.7-2.68c-1.43-1.42-3.12-2.12-5.05-2.12c-0.97,0-1.89,0.19-2.76,0.56c-0.88,0.38-1.65,0.9-2.31,1.56
			c-0.67,0.67-1.2,1.44-1.57,2.32c-0.38,0.88-0.57,1.79-0.57,2.75c0,0.69,0.1,1.34,0.31,1.95s0.48,1.13,0.8,1.57
			c0.32,0.44,0.74,0.86,1.26,1.26c0.52,0.4,1.02,0.73,1.5,0.99c0.48,0.26,1.06,0.53,1.73,0.79c0.67,0.27,1.25,0.48,1.73,0.63
			c0.49,0.15,1.06,0.34,1.73,0.55c0.67,0.21,1.17,0.38,1.52,0.5c1.15,0.41,2.25,0.89,3.28,1.45c1.04,0.55,2.03,1.22,2.98,1.99
			c0.95,0.77,1.78,1.61,2.47,2.51c0.69,0.9,1.24,1.92,1.65,3.06c0.41,1.14,0.62,2.34,0.62,3.58c0,1.86-0.4,3.64-1.21,5.34
			c-0.81,1.7-1.87,3.15-3.2,4.35c-1.32,1.2-2.86,2.16-4.61,2.87s-3.55,1.07-5.39,1.07c-2.03,0-3.99-0.41-5.88-1.24
			s-3.55-2-4.96-3.52c-1.42-1.52-2.42-3.25-3.03-5.18l6.33-1.35c0.59,1.42,1.6,2.58,3.02,3.48c1.43,0.9,2.92,1.35,4.47,1.35
			C275.32,64.17,276.28,63.94,277.22,63.57z"/>
		<path d="M313.47,22.96h10.6v6.25h-10.6h-2v1.97v38.97h-6.32V31.18v-1.97h-2h-10.6v-6.25h10.6H313.47z"/>
		<path d="M329.81,22.96h14.73c2.35,0,4.57,0.41,6.67,1.24c1.99,0.78,3.77,1.92,5.33,3.4c1.61,1.63,2.73,3.18,3.36,4.67
			c0.68,1.54,1.02,3.4,1.02,5.55v1.33c0,1.63-0.24,3.13-0.73,4.51c-0.47,1.31-1.19,2.68-2.16,4.09c-0.83,1.14-1.61,1.98-2.35,2.51
			c-0.7,0.53-1.67,1.04-2.92,1.52l-2.22,0.89l1.3,2.03l9.97,15.46h-7.87l-10.76-16.54h-6.98v16.54h-6.35L329.81,22.96z
			 M345.49,47.31l0.03,0.03c1.29,0,2.42-0.21,3.4-0.63c0.87-0.4,1.77-1.07,2.7-2c0.95-0.95,1.63-1.97,2.03-3.05
			c0.4-0.97,0.6-2.15,0.6-3.52c0-1.25-0.2-2.39-0.6-3.43c-0.38-0.89-1.05-1.84-2-2.86v-0.03c-0.87-0.85-2.01-1.5-3.43-1.97
			c-1.33-0.45-2.77-0.67-4.32-0.67h-5.78h-1.97v2v14.12v1.97h1.97l2.38,0.03h1.59H345.49z"/>
		<path d="M406.21,70.16h-6.76l-3.49-7.78h-10.05H375.9l-3.49,7.78h-6.76l20.28-47.64L406.21,70.16z M385.91,57.3h7.73
			c-1.29-2.96-2.58-6.15-3.86-9.55c-1.28-3.41-2.55-6.6-3.82-9.59c-1.29,2.98-2.59,6.18-3.89,9.59c-1.3,3.41-2.59,6.59-3.86,9.55
			H385.91z"/>
		<path d="M423.03,22.96h10.6v6.25h-10.6h-2v1.97v38.97h-6.32V31.18v-1.97h-2h-10.6v-6.25h10.6H423.03z"/>
		<path d="M466.23,22.87v6.28h-18.57h-1.97v1.97v10.31v2h1.97h13.43v6.28h-13.43h-1.97v1.97V62v2h1.97h18.57v6.28h-18.57h-8.28
			V22.87H466.23z"/>
		<path d="M492.52,22.65h1.43c1.67,0,3.27,0.16,4.79,0.48c1.61,0.34,3.1,0.8,4.47,1.4c1.42,0.61,2.79,1.36,4.13,2.25
			c0.59,0.4,1.29,0.92,2.09,1.56l-4.51,4.54c-1.29-1.04-2.7-1.88-4.22-2.54c-2.05-0.87-4.29-1.3-6.7-1.3c-2.48,0-4.72,0.43-6.73,1.3
			c-2.05,0.85-3.95,2.14-5.68,3.87c-1.71,1.76-2.99,3.65-3.84,5.68c-0.87,2.14-1.3,4.38-1.3,6.73c0,2.37,0.43,4.61,1.3,6.73
			c0.85,2.05,2.13,3.95,3.84,5.68s3.61,3.03,5.68,3.87c2.12,0.87,4.36,1.3,6.73,1.3c1.86,0,3.67-0.29,5.43-0.86
			c1.65-0.51,3.25-1.32,4.79-2.44c1.25-0.93,2.33-1.96,3.24-3.08c0.95-1.14,1.75-2.38,2.38-3.71l1.33-2.83h-3.14h-12.6V45.4h0.54
			h21.84c0.08,3.34-0.37,6.44-1.36,9.3c-1.14,3.36-3,6.32-5.59,8.85c-2.39,2.35-4.98,4.11-7.78,5.27c-2.77,1.16-5.83,1.75-9.17,1.75
			c-3.36,0-6.42-0.58-9.17-1.75c-2.83-1.16-5.42-2.92-7.74-5.27c-2.41-2.39-4.17-4.97-5.27-7.74c-1.16-2.79-1.75-5.86-1.75-9.2
			c0-3.32,0.58-6.39,1.75-9.21c1.1-2.75,2.86-5.34,5.27-7.78c2.31-2.35,4.89-4.12,7.74-5.3c2.33-0.99,4.91-1.58,7.74-1.75
			L492.52,22.65z"/>
		<path d="M523.57,22.96h6.32v47.19h-6.32V22.96z"/>
		<path d="M576.19,70.16h-6.76l-3.49-7.78H555.9h-10.01l-3.49,7.78h-6.76l20.28-47.64L576.19,70.16z M555.9,57.3h7.73
			c-1.29-2.96-2.58-6.15-3.86-9.55c-1.28-3.41-2.55-6.6-3.82-9.59c-1.29,2.98-2.59,6.18-3.89,9.59c-1.3,3.41-2.59,6.59-3.86,9.55
			H555.9z"/>
		<path d="M596.68,63.57c0.94-0.38,1.79-0.87,2.54-1.47s1.36-1.36,1.82-2.25c0.46-0.89,0.69-1.84,0.69-2.85
			c0.02-0.85-0.16-1.64-0.53-2.38c-0.37-0.74-0.85-1.36-1.42-1.88c-0.58-0.52-1.29-1-2.15-1.45c-0.85-0.45-1.67-0.81-2.44-1.09
			c-0.77-0.28-1.63-0.54-2.56-0.8c-2.09-0.58-3.95-1.33-5.57-2.24c-1.63-0.91-3.05-2.11-4.28-3.59c-0.84-1.01-1.48-2.14-1.94-3.41
			c-0.46-1.26-0.69-2.58-0.69-3.96c0-1.85,0.35-3.61,1.05-5.27c0.7-1.66,1.67-3.11,2.93-4.35c1.26-1.26,2.72-2.24,4.39-2.94
			c1.67-0.7,3.43-1.05,5.28-1.05c1.69,0,3.29,0.29,4.82,0.87c1.53,0.58,2.9,1.4,4.13,2.46c2.06,1.78,3.45,3.97,4.18,6.59l-6.3,1.33
			c-0.34-0.97-0.91-1.87-1.7-2.68c-1.43-1.42-3.12-2.12-5.05-2.12c-0.97,0-1.89,0.19-2.76,0.56c-0.88,0.38-1.65,0.9-2.31,1.56
			c-0.67,0.67-1.2,1.44-1.57,2.32c-0.38,0.88-0.57,1.79-0.57,2.75c0,0.69,0.1,1.34,0.31,1.95s0.47,1.13,0.8,1.57
			s0.74,0.86,1.26,1.26c0.52,0.4,1.01,0.73,1.5,0.99c0.48,0.26,1.06,0.53,1.73,0.79c0.67,0.27,1.25,0.48,1.73,0.63
			c0.49,0.15,1.06,0.34,1.73,0.55c0.67,0.21,1.17,0.38,1.52,0.5c1.15,0.41,2.25,0.89,3.28,1.45c1.04,0.55,2.03,1.22,2.99,1.99
			c0.95,0.77,1.78,1.61,2.47,2.51s1.24,1.92,1.65,3.06s0.62,2.34,0.62,3.58c0,1.86-0.4,3.64-1.21,5.34
			c-0.81,1.7-1.87,3.15-3.19,4.35c-1.32,1.2-2.86,2.16-4.61,2.87s-3.55,1.07-5.39,1.07c-2.03,0-3.99-0.41-5.88-1.24
			s-3.55-2-4.96-3.52c-1.42-1.52-2.42-3.25-3.02-5.18l6.33-1.35c0.59,1.42,1.6,2.58,3.02,3.48c1.42,0.9,2.92,1.35,4.47,1.35
			C594.79,64.17,595.75,63.94,596.68,63.57z"/>
	</g>
</g>
<g>
</g>
<g>
</g>
<g>
</g>
<g>
</g>
<g>
</g>
<g>
</g>
</svg>
