<?xml version="1.0" encoding="utf-8"?>
<!-- Generator: Adobe Illustrator 23.0.1, SVG Export Plug-In . SVG Version: 6.00 Build 0)  -->
<svg version="1.1" id="Capa_1" xmlns="http://www.w3.org/2000/svg" xmlns:xlink="http://www.w3.org/1999/xlink" x="0px" y="0px"
	 viewBox="0 0 554.05 562.04" style="enable-background:new 0 0 554.05 562.04;" xml:space="preserve">
<style type="text/css">
	.st0{filter:url(#Adobe_OpacityMaskFilter);}
	.st1{clip-path:url(#SVGID_2_);fill:url(#SVGID_4_);}
	.st2{clip-path:url(#SVGID_2_);mask:url(#SVGID_3_);}
	.st3{clip-path:url(#SVGID_6_);fill:#FBBA00;}
	.st4{clip-path:url(#SVGID_6_);fill:none;stroke:#B57303;stroke-width:1.444;}
	.st5{filter:url(#Adobe_OpacityMaskFilter_1_);}
	.st6{clip-path:url(#SVGID_2_);fill:url(#SVGID_8_);}
	.st7{clip-path:url(#SVGID_2_);mask:url(#SVGID_7_);}
	.st8{clip-path:url(#SVGID_10_);fill:#E42813;}
	.st9{clip-path:url(#SVGID_10_);fill:none;stroke:#8B3626;stroke-width:1.444;}
	.st10{filter:url(#Adobe_OpacityMaskFilter_2_);}
	.st11{clip-path:url(#SVGID_2_);fill:url(#SVGID_12_);}
	.st12{clip-path:url(#SVGID_2_);mask:url(#SVGID_11_);}
	.st13{clip-path:url(#SVGID_14_);fill:#5FB230;}
	.st14{clip-path:url(#SVGID_14_);fill:none;stroke:#175736;stroke-width:1.444;}
	.st15{filter:url(#Adobe_OpacityMaskFilter_3_);}
	.st16{clip-path:url(#SVGID_2_);fill:url(#SVGID_16_);}
	.st17{clip-path:url(#SVGID_2_);mask:url(#SVGID_15_);}
	.st18{clip-path:url(#SVGID_18_);fill:#3D85C6;}
	.st19{clip-path:url(#SVGID_18_);fill:none;stroke:#004461;stroke-width:1.444;}
</style>
<g>
	<g>
		<defs>
			<rect id="SVGID_1_" width="554.05" height="562.04"/>
		</defs>
		<clipPath id="SVGID_2_">
			<use xlink:href="#SVGID_1_"  style="overflow:visible;"/>
		</clipPath>
		<defs>
			<filter id="Adobe_OpacityMaskFilter" filterUnits="userSpaceOnUse" x="261.33" y="31.47" width="299.72" height="286.47">
				<feFlood  style="flood-color:white;flood-opacity:1" result="back"/>
				<feBlend  in="SourceGraphic" in2="back" mode="normal"/>
			</filter>
		</defs>
		<mask maskUnits="userSpaceOnUse" x="261.33" y="31.47" width="299.72" height="286.47" id="SVGID_3_">
			<g class="st0">
				
					<linearGradient id="SVGID_4_" gradientUnits="userSpaceOnUse" x1="-27.6032" y1="698.6047" x2="-26.6032" y2="698.6047" gradientTransform="matrix(-117.5443 -86.0294 -86.0294 117.5443 57136.0938 -84208.4297)">
					<stop  offset="0" style="stop-color:#FFFFFF"/>
					<stop  offset="1" style="stop-color:#000000"/>
				</linearGradient>
				<polygon class="st1" points="360.79,826.1 -267.87,365.99 193.26,-264.06 821.92,196.05 				"/>
			</g>
		</mask>
		<g class="st2">
			<g>
				<defs>
					<rect id="SVGID_5_" x="261.33" y="31.47" width="299.72" height="286.47"/>
				</defs>
				<clipPath id="SVGID_6_">
					<use xlink:href="#SVGID_5_"  style="overflow:visible;"/>
				</clipPath>
				<path class="st3" d="M263.21,41.24c0,0,212.21,11.83,255.98,200.99l32.83-6.25l-67.22,72.1l-73.38-34.58l26.48-10.94
					c0,0-33.9-131.96-174.84-141.02L263.21,41.24z"/>
				<path class="st4" d="M263.21,41.24c0,0,212.21,11.83,255.98,200.99l32.83-6.25l-67.22,72.1l-73.38-34.58l26.48-10.94
					c0,0-33.9-131.96-174.84-141.02L263.21,41.24z"/>
			</g>
		</g>
		<defs>
			<filter id="Adobe_OpacityMaskFilter_1_" filterUnits="userSpaceOnUse" x="16.27" y="-19.4" width="304.24" height="316.65">
				<feFlood  style="flood-color:white;flood-opacity:1" result="back"/>
				<feBlend  in="SourceGraphic" in2="back" mode="normal"/>
			</filter>
		</defs>
		<mask maskUnits="userSpaceOnUse" x="16.27" y="-19.4" width="304.24" height="316.65" id="SVGID_7_">
			<g class="st5">
				
					<linearGradient id="SVGID_8_" gradientUnits="userSpaceOnUse" x1="-29.1595" y1="699.4964" x2="-28.1595" y2="699.4964" gradientTransform="matrix(-59.2754 95.6015 95.6015 59.2754 -68307.6875 -38421.0742)">
					<stop  offset="0" style="stop-color:#FFFFFF"/>
					<stop  offset="1" style="stop-color:#000000"/>
				</linearGradient>
				<polygon class="st6" points="805.77,156.07 400.2,810.18 -251.71,405.97 153.85,-248.14 				"/>
			</g>
		</mask>
		<g class="st7">
			<g>
				<defs>
					<rect id="SVGID_9_" x="16.27" y="-19.4" width="304.24" height="316.65"/>
				</defs>
				<clipPath id="SVGID_10_">
					<use xlink:href="#SVGID_9_"  style="overflow:visible;"/>
				</clipPath>
				<path class="st8" d="M26.13,278.48c0,0,24.76-211.09,216.24-243.24L238.13,2.1l67.86,71.5l-39,71.13l-9.31-27.1
					c0,0-133.79,25.78-151.43,165.91L26.13,278.48z"/>
				<path class="st9" d="M26.13,278.48c0,0,24.76-211.09,216.24-243.24L238.13,2.1l67.86,71.5l-39,71.13l-9.31-27.1
					c0,0-133.79,25.78-151.43,165.91L26.13,278.48z"/>
			</g>
		</g>
		<defs>
			<filter id="Adobe_OpacityMaskFilter_2_" filterUnits="userSpaceOnUse" x="233.45" y="267.24" width="294.22" height="307.12">
				<feFlood  style="flood-color:white;flood-opacity:1" result="back"/>
				<feBlend  in="SourceGraphic" in2="back" mode="normal"/>
			</filter>
		</defs>
		<mask maskUnits="userSpaceOnUse" x="233.45" y="267.24" width="294.22" height="307.12" id="SVGID_11_">
			<g class="st10">
				
					<linearGradient id="SVGID_12_" gradientUnits="userSpaceOnUse" x1="-26.2261" y1="700.799" x2="-25.2261" y2="700.799" gradientTransform="matrix(20.1102 -75.5798 -75.5798 -20.1102 53758.9883 12436.0508)">
					<stop  offset="0" style="stop-color:#FFFFFF"/>
					<stop  offset="1" style="stop-color:#000000"/>
				</linearGradient>
				<polygon class="st11" points="-139.66,524.88 36.63,-137.68 693.72,37.16 517.42,699.72 				"/>
			</g>
		</mask>
		<g class="st12">
			<g>
				<defs>
					<rect id="SVGID_13_" x="233.45" y="267.24" width="294.22" height="307.12"/>
				</defs>
				<clipPath id="SVGID_14_">
					<use xlink:href="#SVGID_13_"  style="overflow:visible;"/>
				</clipPath>
				<path class="st13" d="M517.86,276.36c0,0-17.38,211.83-207.62,250.63l5.39,32.98l-70.32-69.09l36.49-72.45l10.25,26.76
					c0,0,132.81-30.43,145.55-171.09L517.86,276.36z"/>
				<path class="st14" d="M517.86,276.36c0,0-17.38,211.83-207.62,250.63l5.39,32.98l-70.32-69.09l36.49-72.45l10.25,26.76
					c0,0,132.81-30.43,145.55-171.09L517.86,276.36z"/>
			</g>
		</g>
		<defs>
			<filter id="Adobe_OpacityMaskFilter_3_" filterUnits="userSpaceOnUse" x="-24.7" y="229.87" width="323.55" height="311.51">
				<feFlood  style="flood-color:white;flood-opacity:1" result="back"/>
				<feBlend  in="SourceGraphic" in2="back" mode="normal"/>
			</filter>
		</defs>
		<mask maskUnits="userSpaceOnUse" x="-24.7" y="229.87" width="323.55" height="311.51" id="SVGID_15_">
			<g class="st15">
				
					<linearGradient id="SVGID_16_" gradientUnits="userSpaceOnUse" x1="-28.1844" y1="703.3637" x2="-27.1844" y2="703.3637" gradientTransform="matrix(61.4092 18.1902 18.1902 -61.4092 -10815.3232 43978.1875)">
					<stop  offset="0" style="stop-color:#FFFFFF"/>
					<stop  offset="1" style="stop-color:#000000"/>
				</linearGradient>
				<polygon class="st16" points="44.69,-150.88 707.11,45.34 509.36,712.92 -153.06,516.71 				"/>
			</g>
		</mask>
		<g class="st17">
			<g>
				<defs>
					<rect id="SVGID_17_" x="-24.7" y="229.87" width="323.55" height="311.51"/>
				</defs>
				<clipPath id="SVGID_18_">
					<use xlink:href="#SVGID_17_"  style="overflow:visible;"/>
				</clipPath>
				<path class="st18" d="M272.86,531.49c0,0-210.37-30.28-237.49-222.53l-33.25,3.37l73.25-65.97l70.08,40.84l-27.33,8.59
					c0,0,22.27,134.42,161.89,155.72L272.86,531.49z"/>
				<path class="st19" d="M272.86,531.49c0,0-210.37-30.28-237.49-222.53l-33.25,3.37l73.25-65.97l70.08,40.84l-27.33,8.59
					c0,0,22.27,134.42,161.89,155.72L272.86,531.49z"/>
			</g>
		</g>
	</g>
	<g>
		<path d="M101.17,219.85l-1.56,4.32l-5.77,0.44l-2.31,6.42l-2.3,6.4l4.16,4.02l-1.56,4.32l-25.76-23.92L101.17,219.85z
			 M88.29,229.85l1.78-4.94c-2.19,0.14-4.52,0.23-6.99,0.26c-2.47,0.03-4.8,0.11-7,0.24c1.61,1.51,3.35,3.07,5.23,4.69
			c1.88,1.61,3.62,3.17,5.21,4.66L88.29,229.85z"/>
	</g>
	<g>
		<path d="M84.21,181.81c1.16-1.65,2.47-3.01,3.94-4.08c1.71-1.27,3.63-2.16,5.76-2.67l0.03-0.01c1.96-0.46,3.97-0.47,6.05-0.01
			c2.07,0.46,4.01,1.24,5.81,2.35c1.81,1.12,3.37,2.5,4.7,4.14c1.32,1.64,2.21,3.44,2.68,5.4l0.01,0.03c0.5,2.1,0.55,4.21,0.17,6.33
			c-0.36,2.11-1.14,4.15-2.36,6.11l-4.15,6.71l-27.24-16.83l4.15-6.71L84.21,181.81z M107.37,197.13c0.9-1.45,1.5-2.93,1.79-4.41
			c0.3-1.47,0.28-2.96-0.07-4.48c-0.38-1.5-1.03-2.85-1.98-4.06c-0.92-1.19-2.12-2.25-3.61-3.17c-1.47-0.91-2.94-1.51-4.43-1.8
			c-1.49-0.3-2.99-0.27-4.51,0.08c-1.47,0.36-2.83,1-4.08,1.93c-1.2,0.93-2.25,2.13-3.16,3.59l-1.19,1.92l-0.71,1.15l1.14,0.7
			l17.74,10.96l1.14,0.7l0.71-1.15l1.21-1.96L107.37,197.13z"/>
	</g>
	<g>
		<path d="M134.76,151.16l-2.74-2.65l-12.88-12.47l2.98-3.08l23.48,22.73l-30.57-0.48l1.76,1.71l13.9,13.46l-2.98,3.08l-23.31-22.57
			L134.76,151.16z"/>
	</g>
	<g>
	</g>
	<g>
		<path d="M179.02,93.27l1.92,3.81l-11.26,5.66l-1.19,0.6l0.6,1.19l3.15,6.26l0.61,1.21l1.19-0.6l8.14-4.09l1.92,3.81l-8.14,4.09
			l-1.19,0.6l0.6,1.19l3.15,6.26l0.61,1.21l1.19-0.6l11.26-5.66l1.92,3.81l-11.26,5.66l-5.02,2.53l-14.46-28.76L179.02,93.27z"/>
	</g>
	<g>
		<path d="M215.1,108.38c0.54-0.43,0.99-0.92,1.36-1.46c0.37-0.54,0.62-1.15,0.74-1.82c0.13-0.67,0.09-1.33-0.11-1.99
			c-0.15-0.55-0.42-1.03-0.81-1.44s-0.82-0.72-1.3-0.94s-1.04-0.4-1.68-0.52c-0.64-0.13-1.24-0.2-1.8-0.23
			c-0.56-0.03-1.16-0.03-1.82-0.02c-1.47,0.04-2.83-0.08-4.06-0.36c-1.24-0.27-2.4-0.77-3.49-1.49c-0.74-0.49-1.39-1.1-1.93-1.83
			c-0.55-0.73-0.96-1.54-1.23-2.43c-0.37-1.21-0.48-2.41-0.36-3.63c0.13-1.21,0.48-2.35,1.04-3.4c0.57-1.07,1.33-1.99,2.27-2.78
			c0.94-0.78,2.02-1.36,3.22-1.72c1.09-0.33,2.2-0.46,3.3-0.38c1.11,0.08,2.16,0.34,3.17,0.79c1.68,0.75,3.02,1.9,4.01,3.46
			l-3.83,2.11c-0.41-0.57-0.96-1.03-1.63-1.41c-1.21-0.64-2.44-0.77-3.7-0.38c-0.63,0.19-1.19,0.49-1.68,0.91
			c-0.49,0.42-0.89,0.91-1.19,1.47c-0.3,0.57-0.49,1.17-0.56,1.82c-0.07,0.64-0.01,1.28,0.17,1.9c0.14,0.45,0.33,0.85,0.59,1.2
			s0.53,0.64,0.83,0.86c0.3,0.22,0.65,0.41,1.07,0.57c0.41,0.16,0.8,0.27,1.17,0.35s0.79,0.13,1.28,0.18
			c0.49,0.04,0.9,0.07,1.25,0.07s0.76,0.01,1.23,0.01c0.47,0,0.84,0.01,1.09,0.02c0.83,0.04,1.64,0.14,2.42,0.29
			c0.78,0.16,1.56,0.39,2.33,0.71c0.77,0.32,1.47,0.7,2.1,1.14s1.18,1,1.68,1.66c0.49,0.66,0.86,1.4,1.1,2.2
			c0.37,1.21,0.46,2.45,0.27,3.71c-0.19,1.26-0.59,2.41-1.22,3.46c-0.62,1.04-1.44,1.96-2.43,2.77c-1,0.81-2.09,1.39-3.29,1.75
			c-1.32,0.4-2.67,0.52-4.06,0.35c-1.39-0.16-2.7-0.6-3.92-1.31c-1.22-0.71-2.21-1.63-2.99-2.77l3.85-2.12
			c0.66,0.81,1.54,1.36,2.65,1.67s2.16,0.3,3.17,0C213.98,109.15,214.56,108.81,215.1,108.38z"/>
	</g>
	<g>
		<path d="M247.14,73.1l7.14-0.86l0.51,4.21l-7.14,0.86l-1.35,0.16l0.16,1.33l3.16,26.27l-4.26,0.51l-3.16-26.27l-0.16-1.33
			l-1.35,0.16l-7.14,0.86l-0.51-4.21l7.14-0.86L247.14,73.1z"/>
	</g>
	<g>
		<path d="M275.1,70.82l9.97,0.69c1.59,0.11,3.08,0.5,4.46,1.15c1.31,0.62,2.46,1.47,3.45,2.55c1.01,1.18,1.7,2.29,2.06,3.32
			c0.38,1.08,0.53,2.35,0.43,3.81l-0.06,0.9c-0.08,1.1-0.31,2.11-0.71,3.02c-0.38,0.87-0.93,1.76-1.65,2.67
			c-0.61,0.73-1.18,1.26-1.71,1.59c-0.5,0.33-1.18,0.62-2.05,0.89l-1.55,0.5l0.79,1.44l6.02,10.94l-5.33-0.37l-6.51-11.7l-4.73-0.33
			l-0.78,11.2l-4.3-0.3L275.1,70.82z M284.57,88.04l0.02,0.02c0.87,0.06,1.65-0.03,2.33-0.27c0.61-0.23,1.25-0.64,1.92-1.23
			c0.69-0.6,1.2-1.26,1.52-1.97c0.32-0.64,0.51-1.43,0.57-2.36c0.06-0.85-0.02-1.63-0.25-2.35c-0.22-0.62-0.62-1.3-1.22-2.03l0-0.02
			c-0.55-0.61-1.29-1.11-2.23-1.49c-0.88-0.36-1.85-0.58-2.89-0.65l-3.91-0.27l-1.33-0.09l-0.09,1.35l-0.67,9.56l-0.09,1.33
			l1.33,0.09l1.61,0.13l1.07,0.08L284.57,88.04z"/>
	</g>
	<g>
		<path d="M334.61,112.76l-4.42-1.22l-0.88-5.72l-6.57-1.82l-6.55-1.81l-3.69,4.46l-4.42-1.22l21.89-27.5L334.61,112.76z
			 M323.65,100.68l5.06,1.4c-0.31-2.17-0.57-4.49-0.79-6.95c-0.22-2.46-0.48-4.78-0.77-6.96c-1.38,1.72-2.81,3.57-4.28,5.57
			c-1.47,1.99-2.88,3.84-4.25,5.55L323.65,100.68z"/>
	</g>
	<g>
		<path d="M369.23,92.47l6.47,3.16l-1.86,3.81l-6.47-3.16l-1.22-0.59l-0.59,1.2l-11.6,23.78l-3.85-1.88l11.6-23.78l0.59-1.2
			l-1.22-0.59l-6.47-3.16l1.86-3.81l6.47,3.15L369.23,92.47z"/>
	</g>
	<g>
		<path d="M408.44,116.28l-2.53,3.44l-10.15-7.47l-1.08-0.79l-0.79,1.08l-4.15,5.64l-0.8,1.09l1.08,0.79l7.34,5.4l-2.53,3.44
			l-7.34-5.4l-1.08-0.79l-0.79,1.08l-4.15,5.64l-0.8,1.09l1.08,0.79l10.15,7.47l-2.53,3.44l-10.15-7.47l-4.53-3.33l19.08-25.92
			L408.44,116.28z"/>
	</g>
	<g>
		<path d="M435.12,139.97l0.64,0.73c0.75,0.85,1.38,1.74,1.91,2.66c0.55,0.97,0.98,1.94,1.29,2.91c0.32,1,0.56,2.04,0.7,3.11
			c0.06,0.48,0.11,1.07,0.15,1.77l-4.33-0.26c-0.05-1.12-0.25-2.22-0.6-3.29c-0.48-1.44-1.26-2.77-2.34-4
			c-1.11-1.26-2.34-2.21-3.68-2.85c-1.35-0.67-2.86-1.05-4.52-1.16c-1.66-0.09-3.2,0.11-4.62,0.59c-1.48,0.52-2.82,1.3-4.01,2.35
			c-1.21,1.06-2.16,2.29-2.85,3.68c-0.67,1.35-1.06,2.85-1.17,4.5c-0.12,1.65,0.08,3.2,0.57,4.63c0.51,1.47,1.29,2.81,2.35,4.01
			c0.83,0.95,1.79,1.74,2.87,2.38c1,0.61,2.13,1.06,3.39,1.35c1.03,0.22,2.04,0.31,3.02,0.27c1.01-0.03,2-0.18,2.96-0.45l2.04-0.59
			l-1.41-1.6l-5.65-6.42l2.99-2.63l0.24,0.28l9.79,11.13c-1.67,1.54-3.45,2.7-5.35,3.47c-2.23,0.93-4.57,1.3-7.02,1.12
			c-2.27-0.17-4.33-0.7-6.17-1.6c-1.84-0.89-3.5-2.19-5-3.89c-1.51-1.71-2.58-3.54-3.22-5.46c-0.68-1.97-0.94-4.07-0.79-6.31
			c0.14-2.3,0.67-4.35,1.58-6.16c0.9-1.85,2.21-3.52,3.91-5.02c1.69-1.49,3.52-2.57,5.47-3.24c1.89-0.67,4-0.94,6.33-0.8
			c2.23,0.12,4.29,0.65,6.17,1.57c1.55,0.74,3,1.79,4.36,3.16L435.12,139.97z"/>
	</g>
	<g>
		<path d="M458.14,169.27l2.25,3.65l-27.25,16.84l-2.25-3.65L458.14,169.27z"/>
	</g>
	<g>
		<path d="M451.84,227.56l-1.71-4.26l4.01-4.17l-2.55-6.33l-2.54-6.31l-5.78-0.23l-1.71-4.26l35.14,0.69L451.84,227.56z
			 M454.79,211.52l1.96,4.87c1.54-1.56,3.22-3.18,5.04-4.85s3.51-3.28,5.07-4.84c-2.21-0.06-4.55-0.06-7.02-0.02
			c-2.48,0.04-4.81,0.04-6.99-0.01L454.79,211.52z"/>
	</g>
	<g>
		<path d="M462.83,250.44c0.39,0.57,0.84,1.05,1.36,1.46s1.1,0.7,1.76,0.87c0.66,0.17,1.32,0.19,1.99,0.03
			c0.56-0.11,1.06-0.35,1.49-0.7c0.43-0.36,0.78-0.76,1.04-1.22c0.25-0.46,0.47-1.01,0.64-1.64c0.17-0.63,0.29-1.22,0.36-1.78
			c0.07-0.55,0.12-1.16,0.15-1.81c0.07-1.47,0.29-2.81,0.65-4.02c0.36-1.21,0.94-2.34,1.74-3.37c0.54-0.7,1.2-1.3,1.97-1.79
			c0.77-0.49,1.61-0.84,2.52-1.04c1.23-0.28,2.44-0.31,3.64-0.09c1.2,0.22,2.31,0.65,3.32,1.29c1.02,0.65,1.89,1.47,2.6,2.47
			s1.21,2.11,1.48,3.34c0.25,1.12,0.3,2.22,0.14,3.32c-0.16,1.1-0.5,2.13-1.02,3.1c-0.87,1.63-2.12,2.88-3.74,3.75l-1.82-3.97
			c0.59-0.37,1.1-0.88,1.52-1.53c0.72-1.16,0.94-2.38,0.65-3.66c-0.14-0.64-0.41-1.22-0.79-1.75c-0.38-0.52-0.84-0.96-1.38-1.3
			c-0.54-0.34-1.13-0.58-1.77-0.7c-0.64-0.12-1.27-0.11-1.91,0.04c-0.46,0.1-0.87,0.27-1.24,0.5c-0.37,0.23-0.68,0.48-0.92,0.76
			c-0.24,0.28-0.46,0.62-0.65,1.02c-0.19,0.4-0.33,0.78-0.43,1.14c-0.1,0.36-0.19,0.78-0.27,1.26c-0.08,0.48-0.13,0.9-0.16,1.24
			s-0.06,0.76-0.1,1.23c-0.04,0.47-0.07,0.83-0.1,1.08c-0.1,0.82-0.25,1.62-0.47,2.39c-0.21,0.77-0.5,1.53-0.88,2.27
			c-0.37,0.75-0.8,1.42-1.29,2.01c-0.49,0.59-1.09,1.11-1.78,1.55c-0.7,0.44-1.46,0.76-2.28,0.94c-1.23,0.28-2.47,0.28-3.72,0
			c-1.25-0.28-2.37-0.77-3.36-1.47c-0.99-0.7-1.85-1.58-2.59-2.63c-0.73-1.05-1.24-2.19-1.51-3.41c-0.3-1.34-0.32-2.7-0.05-4.08
			c0.26-1.38,0.79-2.65,1.59-3.81c0.8-1.16,1.79-2.09,2.98-2.78l1.84,4c-0.85,0.6-1.47,1.44-1.86,2.52
			c-0.39,1.08-0.46,2.13-0.23,3.16C462.14,249.27,462.44,249.87,462.83,250.44z"/>
	</g>
	<g>
		<path d="M448.27,360.51l0.87-2.35l3.15-0.22l1.29-3.49l1.28-3.48l-2.25-2.21l0.87-2.35l13.95,13.15L448.27,360.51z M455.33,355.11
			l-0.99,2.68c1.19-0.07,2.47-0.11,3.81-0.11c1.35-0.01,2.62-0.04,3.82-0.1c-0.87-0.83-1.81-1.69-2.83-2.58s-1.96-1.74-2.82-2.56
			L455.33,355.11z"/>
	</g>
	<g>
		<path d="M446.72,377.29l1.87,0.91l8.79,4.28l-1.02,2.1l-16.03-7.79l15.93-4.94l-1.2-0.59l-9.49-4.61l1.02-2.1l15.91,7.74
			L446.72,377.29z"/>
	</g>
	<g>
		<path d="M430.73,393.59l1.31-2.13l3.13,0.4l1.95-3.17l1.94-3.16l-1.78-2.61l1.31-2.13l11.1,15.63L430.73,393.59z M438.71,389.68
			l-1.5,2.44c1.18,0.17,2.44,0.38,3.76,0.63c1.32,0.26,2.58,0.47,3.76,0.65c-0.69-0.98-1.45-2.01-2.27-3.08
			c-0.82-1.07-1.58-2.09-2.27-3.07L438.71,389.68z M452.09,401.03l-0.83-4.11l0.67-0.26l1.65,3.82L452.09,401.03z"/>
	</g>
	<g>
		<path d="M440.75,409.58l-11.51-8.7l-0.59-0.45l-0.44,0.58l-4.15,5.48l-1.84-1.39l5.99-7.93l13.94,10.54L440.75,409.58z"/>
	</g>
	<g>
		<path d="M432.78,419.84l-1.52,1.78l-13.28-11.35l1.52-1.78L432.78,419.84z"/>
	</g>
	<g>
		<path d="M412.75,419.77c-0.14,0.35-0.22,0.7-0.25,1.06c-0.03,0.36,0.02,0.71,0.14,1.06c0.12,0.35,0.32,0.65,0.59,0.91
			c0.22,0.22,0.48,0.37,0.77,0.46s0.58,0.12,0.87,0.09c0.29-0.03,0.6-0.1,0.94-0.21s0.64-0.24,0.91-0.38
			c0.27-0.14,0.56-0.3,0.86-0.49c0.69-0.42,1.36-0.73,2.02-0.93c0.66-0.21,1.34-0.29,2.06-0.24c0.48,0.03,0.95,0.14,1.41,0.34
			c0.46,0.2,0.87,0.47,1.24,0.82c0.5,0.47,0.88,1.01,1.15,1.62c0.27,0.61,0.41,1.24,0.43,1.89c0.02,0.66-0.09,1.3-0.32,1.93
			c-0.23,0.63-0.59,1.19-1.06,1.69c-0.43,0.45-0.92,0.81-1.46,1.08c-0.54,0.26-1.12,0.43-1.71,0.49c-1,0.1-1.95-0.08-2.84-0.54
			l1.24-2.04c0.35,0.15,0.73,0.23,1.15,0.22c0.75-0.03,1.36-0.3,1.86-0.82c0.24-0.26,0.43-0.55,0.55-0.89
			c0.12-0.33,0.18-0.67,0.17-1.02c-0.01-0.35-0.09-0.69-0.23-1.01c-0.14-0.32-0.34-0.61-0.6-0.85c-0.19-0.18-0.39-0.31-0.6-0.41
			c-0.22-0.1-0.42-0.16-0.62-0.18c-0.2-0.02-0.42-0.02-0.66,0.02c-0.24,0.04-0.46,0.09-0.65,0.15c-0.19,0.06-0.41,0.15-0.65,0.26
			c-0.24,0.11-0.45,0.21-0.61,0.31c-0.17,0.09-0.36,0.2-0.59,0.33c-0.23,0.13-0.4,0.22-0.52,0.28c-0.4,0.21-0.81,0.38-1.22,0.52
			c-0.41,0.14-0.84,0.24-1.29,0.3c-0.45,0.06-0.89,0.07-1.3,0.03s-0.83-0.15-1.24-0.33c-0.41-0.18-0.79-0.43-1.12-0.74
			c-0.5-0.47-0.88-1.03-1.13-1.68c-0.25-0.65-0.37-1.3-0.36-1.96c0.01-0.66,0.14-1.32,0.4-1.97c0.25-0.65,0.61-1.23,1.08-1.72
			c0.52-0.55,1.12-0.97,1.83-1.27c0.7-0.3,1.44-0.45,2.21-0.44s1.49,0.17,2.16,0.5l-1.25,2.05c-0.53-0.2-1.1-0.22-1.71-0.07
			c-0.6,0.16-1.1,0.44-1.5,0.86C413.07,419.1,412.88,419.42,412.75,419.77z"/>
	</g>
	<g>
		<path d="M416.89,436.93l-1.7,1.6l-11.98-12.71l1.7-1.6L416.89,436.93z"/>
	</g>
	<g>
		<path d="M396.9,434.68c-0.18,0.33-0.3,0.67-0.37,1.02s-0.07,0.71,0.02,1.07c0.08,0.36,0.24,0.69,0.48,0.98
			c0.2,0.24,0.43,0.43,0.71,0.55c0.28,0.12,0.56,0.19,0.85,0.2s0.61-0.02,0.95-0.1c0.35-0.08,0.67-0.17,0.95-0.27
			c0.29-0.11,0.59-0.23,0.92-0.38c0.73-0.33,1.44-0.56,2.11-0.69c0.68-0.13,1.37-0.13,2.07,0c0.48,0.09,0.93,0.26,1.36,0.51
			c0.43,0.25,0.81,0.57,1.13,0.96c0.44,0.53,0.76,1.11,0.95,1.74s0.26,1.28,0.2,1.93c-0.06,0.66-0.24,1.28-0.55,1.88
			c-0.31,0.59-0.72,1.11-1.25,1.55c-0.48,0.4-1.01,0.7-1.58,0.9c-0.57,0.2-1.16,0.29-1.76,0.28c-1-0.02-1.92-0.31-2.75-0.88
			l1.47-1.87c0.33,0.2,0.7,0.32,1.12,0.36c0.74,0.06,1.39-0.14,1.94-0.6c0.27-0.23,0.49-0.5,0.65-0.82
			c0.16-0.31,0.25-0.64,0.29-0.99c0.03-0.35,0-0.69-0.1-1.03c-0.1-0.34-0.26-0.64-0.49-0.92c-0.16-0.2-0.35-0.36-0.55-0.48
			s-0.4-0.21-0.6-0.26c-0.2-0.05-0.42-0.07-0.66-0.06c-0.24,0.01-0.46,0.03-0.66,0.07c-0.2,0.04-0.43,0.1-0.68,0.19
			c-0.25,0.08-0.47,0.16-0.64,0.23c-0.18,0.07-0.38,0.16-0.62,0.25c-0.24,0.1-0.42,0.17-0.55,0.22c-0.42,0.16-0.85,0.28-1.28,0.37
			c-0.43,0.09-0.87,0.13-1.32,0.14c-0.46,0.01-0.89-0.04-1.3-0.13c-0.41-0.09-0.81-0.25-1.2-0.48c-0.39-0.23-0.73-0.52-1.02-0.87
			c-0.44-0.53-0.75-1.13-0.92-1.8c-0.17-0.67-0.22-1.34-0.13-1.99c0.09-0.66,0.3-1.29,0.63-1.91c0.33-0.62,0.75-1.15,1.28-1.58
			c0.58-0.48,1.23-0.83,1.96-1.04c0.73-0.21,1.48-0.27,2.24-0.18s1.46,0.35,2.09,0.75l-1.48,1.89c-0.5-0.26-1.07-0.35-1.69-0.27
			c-0.62,0.08-1.15,0.31-1.59,0.68C397.3,434.05,397.08,434.35,396.9,434.68z"/>
	</g>
	<g>
	</g>
	<g>
		<path d="M388.49,459.78l-6.05-3.48l-1.21-0.7l0.12,1.39l0.57,6.96l-2.23,1.42l-0.75-11.06l-0.12-0.34l-3.95-6.23l1.96-1.24
			l3.95,6.23l0.27,0.25l9.67,5.4L388.49,459.78z"/>
	</g>
	<g>
	</g>
	<g>
		<path d="M360.71,475.26c-1.03,0.39-2.03,0.6-3.02,0.63c-1.16,0.05-2.3-0.14-3.42-0.56l-0.02-0.01c-1.02-0.39-1.93-1.01-2.73-1.85
			c-0.8-0.84-1.43-1.79-1.9-2.84c-0.47-1.06-0.75-2.16-0.85-3.31c-0.09-1.15,0.06-2.23,0.45-3.26l0.01-0.01
			c0.42-1.1,1.04-2.07,1.87-2.91c0.81-0.84,1.79-1.52,2.94-2.04l3.93-1.75l7.13,15.94l-3.93,1.75L360.71,475.26z M354.96,461.25
			c-0.85,0.38-1.57,0.86-2.16,1.44c-0.59,0.57-1.03,1.25-1.34,2.04c-0.29,0.79-0.41,1.6-0.35,2.44c0.05,0.82,0.27,1.67,0.66,2.54
			c0.38,0.86,0.87,1.58,1.45,2.17c0.58,0.59,1.27,1.04,2.06,1.35c0.77,0.29,1.58,0.42,2.43,0.38c0.83-0.05,1.67-0.27,2.53-0.65
			l1.13-0.5l0.68-0.3l-0.3-0.67l-4.64-10.38l-0.3-0.67l-0.68,0.3l-1.15,0.51L354.96,461.25z"/>
	</g>
	<g>
		<path d="M338.38,484.08l-0.77-2.2l6.49-2.26l0.69-0.24l-0.24-0.69l-1.26-3.61l-0.24-0.7l-0.69,0.24l-4.69,1.64l-0.76-2.2
			l4.69-1.64l0.69-0.24l-0.24-0.69l-1.26-3.61l-0.24-0.7l-0.69,0.24l-6.49,2.26l-0.77-2.2l6.49-2.26l2.9-1.01l5.78,16.58
			L338.38,484.08z"/>
	</g>
	<g>
		<path d="M323.81,472.63c-0.3,0.23-0.56,0.48-0.77,0.77c-0.21,0.29-0.36,0.62-0.44,0.98c-0.08,0.36-0.07,0.72,0.03,1.09
			c0.07,0.3,0.21,0.57,0.42,0.8c0.2,0.23,0.43,0.41,0.69,0.54c0.26,0.13,0.56,0.23,0.91,0.31c0.35,0.08,0.67,0.13,0.98,0.16
			c0.3,0.03,0.63,0.04,0.99,0.04c0.8,0.01,1.54,0.1,2.21,0.27c0.67,0.17,1.29,0.46,1.88,0.88c0.4,0.28,0.74,0.62,1.02,1.03
			c0.29,0.41,0.49,0.86,0.62,1.35c0.18,0.66,0.22,1.32,0.13,1.98c-0.09,0.66-0.3,1.27-0.63,1.84c-0.33,0.57-0.76,1.06-1.29,1.47
			c-0.53,0.41-1.13,0.7-1.79,0.88c-0.6,0.16-1.21,0.21-1.81,0.15c-0.6-0.06-1.17-0.22-1.71-0.49c-0.91-0.44-1.61-1.09-2.13-1.96
			l2.13-1.08c0.21,0.32,0.5,0.58,0.86,0.79c0.65,0.37,1.32,0.46,2.01,0.27c0.34-0.09,0.66-0.25,0.93-0.46s0.5-0.48,0.68-0.78
			c0.18-0.3,0.29-0.63,0.34-0.98c0.05-0.35,0.03-0.7-0.06-1.04c-0.07-0.25-0.17-0.47-0.3-0.67c-0.13-0.2-0.28-0.36-0.43-0.48
			c-0.16-0.13-0.35-0.24-0.57-0.33s-0.43-0.16-0.63-0.21c-0.2-0.05-0.43-0.09-0.69-0.12c-0.26-0.03-0.49-0.05-0.68-0.06
			s-0.41-0.02-0.67-0.03c-0.26-0.01-0.46-0.02-0.59-0.03c-0.45-0.04-0.89-0.1-1.31-0.2s-0.84-0.24-1.26-0.43
			c-0.42-0.19-0.79-0.41-1.12-0.66c-0.33-0.25-0.63-0.57-0.88-0.94c-0.26-0.37-0.44-0.78-0.56-1.22c-0.18-0.67-0.21-1.34-0.08-2.03
			c0.13-0.69,0.37-1.31,0.73-1.86c0.36-0.56,0.82-1.05,1.38-1.47c0.56-0.42,1.17-0.72,1.82-0.9c0.73-0.2,1.46-0.23,2.22-0.12
			c0.75,0.11,1.46,0.38,2.11,0.78c0.65,0.41,1.18,0.93,1.58,1.56l-2.14,1.09c-0.35-0.45-0.82-0.77-1.41-0.96
			c-0.6-0.19-1.17-0.21-1.73-0.06C324.43,472.23,324.11,472.41,323.81,472.63z"/>
	</g>
	<g>
		<path d="M300.71,474.91l2.46-0.44l1.77,2.61l3.66-0.65l3.65-0.65l0.77-3.06l2.46-0.44l-4.32,18.67L300.71,474.91z M308.94,478.29
			l-2.82,0.5c0.66,1,1.34,2.08,2.02,3.23c0.69,1.16,1.36,2.24,2.01,3.25c0.28-1.17,0.54-2.42,0.8-3.74s0.52-2.57,0.79-3.73
			L308.94,478.29z"/>
	</g>
	<g>
		<path d="M297.68,492.86l-5.44,0.41c-0.87,0.07-1.7-0.02-2.49-0.27c-0.76-0.23-1.44-0.6-2.06-1.1c-0.64-0.56-1.1-1.1-1.37-1.63
			c-0.29-0.55-0.47-1.23-0.53-2.02l-0.04-0.49c-0.05-0.6,0-1.16,0.14-1.68c0.13-0.5,0.36-1.02,0.68-1.57
			c0.27-0.45,0.54-0.78,0.8-0.99c0.24-0.21,0.59-0.43,1.04-0.64l0.79-0.39l-0.54-0.71l-4.11-5.43l2.91-0.22l4.43,5.81l2.58-0.19
			l-0.46-6.1l2.34-0.18L297.68,492.86z M291.21,484.31l-0.01-0.01c-0.48,0.04-0.89,0.15-1.23,0.33c-0.31,0.17-0.62,0.44-0.94,0.81
			c-0.33,0.38-0.55,0.77-0.67,1.18c-0.12,0.37-0.16,0.81-0.12,1.32c0.03,0.46,0.14,0.88,0.32,1.25c0.17,0.32,0.44,0.65,0.82,1
			l0,0.01c0.34,0.29,0.78,0.5,1.32,0.63c0.5,0.13,1.04,0.17,1.61,0.13l2.13-0.16l0.73-0.05l-0.05-0.74l-0.39-5.21l-0.05-0.73
			l-0.73,0.05l-0.88,0.05l-0.58,0.04L291.21,484.31z"/>
	</g>
	<g>
		<path d="M279.97,494.04l-5.45-0.07c-0.87-0.01-1.69-0.17-2.46-0.49c-0.73-0.3-1.39-0.73-1.96-1.28c-0.59-0.61-0.99-1.19-1.22-1.74
			c-0.24-0.57-0.36-1.26-0.35-2.06l0.01-0.49c0.01-0.6,0.11-1.16,0.29-1.67c0.18-0.48,0.45-0.99,0.82-1.5
			c0.31-0.42,0.6-0.72,0.88-0.92c0.26-0.19,0.62-0.38,1.09-0.55l0.83-0.32l-0.47-0.76l-3.61-5.77l2.91,0.04l3.9,6.17l2.58,0.03
			l0.08-6.12l2.35,0.03L279.97,494.04z M274.29,484.96l-0.01-0.01c-0.48-0.01-0.9,0.07-1.26,0.22c-0.32,0.14-0.66,0.39-1.01,0.73
			c-0.36,0.35-0.61,0.72-0.77,1.12c-0.15,0.36-0.23,0.79-0.24,1.3c-0.01,0.46,0.06,0.89,0.21,1.27c0.14,0.33,0.38,0.69,0.73,1.07
			v0.01c0.32,0.32,0.74,0.57,1.26,0.75c0.49,0.17,1.02,0.26,1.59,0.27l2.14,0.03l0.73,0.01l0.01-0.74l0.07-5.23l0.01-0.73
			l-0.73-0.01l-0.88-0.02l-0.59-0.01L274.29,484.96z"/>
	</g>
	<g>
		<path d="M250.56,491.98c-0.97-0.54-1.85-1.31-2.64-2.29c-0.77-0.97-1.31-2-1.62-3.07c-0.31-1.1-0.4-2.25-0.27-3.46
			c0.14-1.21,0.49-2.32,1.04-3.31c0.55-0.99,1.31-1.86,2.28-2.63c0.95-0.76,1.98-1.29,3.08-1.61c1.1-0.31,2.25-0.39,3.45-0.25
			c1.21,0.14,2.32,0.48,3.31,1.03c0.99,0.55,1.87,1.3,2.63,2.26c0.78,0.97,1.32,2,1.61,3.08c0.31,1.06,0.4,2.21,0.26,3.45
			c-0.14,1.23-0.48,2.33-1.03,3.3c-0.53,0.97-1.28,1.86-2.27,2.65c-0.97,0.77-2,1.31-3.07,1.62c-1.06,0.31-2.21,0.4-3.46,0.26
			C252.63,492.87,251.53,492.52,250.56,491.98z M256.67,490.47c0.83-0.25,1.57-0.65,2.24-1.19c0.71-0.57,1.27-1.21,1.66-1.93
			c0.4-0.73,0.65-1.53,0.75-2.42c0.1-0.9,0.04-1.75-0.18-2.53c-0.22-0.79-0.61-1.54-1.18-2.25c-0.53-0.69-1.17-1.24-1.92-1.65
			c-0.74-0.41-1.55-0.66-2.43-0.76c-0.87-0.1-1.71-0.04-2.52,0.2c-0.81,0.23-1.56,0.62-2.25,1.17c-0.71,0.57-1.27,1.21-1.66,1.93
			c-0.41,0.72-0.67,1.52-0.77,2.42c-0.1,0.88-0.03,1.72,0.21,2.53c0.23,0.78,0.63,1.53,1.17,2.25c0.55,0.69,1.2,1.24,1.94,1.67
			c0.73,0.41,1.54,0.66,2.41,0.76C255,490.76,255.85,490.7,256.67,490.47z"/>
	</g>
	<g>
		<path d="M236.92,490.41l2.9-14.13l0.15-0.73l-0.71-0.15l-6.73-1.38l0.46-2.26l9.74,2l-3.51,17.12L236.92,490.41z"/>
	</g>
	<g>
		<path d="M221.72,486.94l3.95-13.88l0.2-0.71l-0.7-0.2l-6.61-1.88l0.63-2.21l9.56,2.72l-4.78,16.8L221.72,486.94z"/>
	</g>
	<g>
		<path d="M200.36,479.36c-0.8-0.77-1.47-1.73-1.99-2.87c-0.51-1.13-0.78-2.26-0.81-3.38c-0.03-1.14,0.17-2.28,0.6-3.42
			c0.44-1.14,1.04-2.13,1.83-2.95c0.77-0.82,1.72-1.48,2.85-1.98c1.11-0.5,2.24-0.76,3.38-0.8c1.14-0.03,2.28,0.18,3.4,0.61
			c1.14,0.44,2.13,1.04,2.95,1.82c0.83,0.78,1.49,1.72,1.98,2.84c0.51,1.13,0.78,2.26,0.8,3.38c0.04,1.1-0.16,2.24-0.61,3.4
			c-0.44,1.16-1.05,2.14-1.81,2.94c-0.75,0.81-1.7,1.48-2.85,2.01c-1.13,0.51-2.26,0.78-3.38,0.81c-1.1,0.04-2.24-0.16-3.41-0.61
			C202.15,480.73,201.17,480.12,200.36,479.36z M206.65,479.4c0.86-0.04,1.68-0.24,2.46-0.59c0.83-0.37,1.52-0.86,2.09-1.45
			c0.57-0.61,1.01-1.33,1.33-2.16c0.32-0.85,0.47-1.68,0.45-2.49c-0.01-0.82-0.21-1.64-0.59-2.48c-0.34-0.8-0.82-1.49-1.45-2.07
			c-0.62-0.58-1.34-1.03-2.17-1.34c-0.82-0.31-1.65-0.46-2.49-0.43c-0.84,0.02-1.66,0.22-2.47,0.58c-0.83,0.37-1.53,0.86-2.09,1.46
			c-0.58,0.59-1.03,1.31-1.35,2.15c-0.32,0.83-0.46,1.66-0.43,2.5c0.03,0.82,0.23,1.64,0.58,2.47c0.37,0.8,0.85,1.5,1.47,2.09
			c0.61,0.58,1.33,1.02,2.14,1.33C204.97,479.28,205.81,479.42,206.65,479.4z"/>
	</g>
	<g>
	</g>
	<g>
		<path d="M175.61,468.24c-0.92-0.6-1.68-1.29-2.29-2.08c-0.72-0.91-1.24-1.95-1.55-3.09l0-0.02c-0.28-1.06-0.32-2.16-0.1-3.3
			c0.21-1.14,0.61-2.21,1.18-3.2c0.58-1,1.31-1.88,2.18-2.63c0.88-0.75,1.84-1.26,2.9-1.55l0.02,0c1.13-0.3,2.28-0.37,3.45-0.19
			c1.16,0.16,2.28,0.56,3.37,1.19l3.72,2.15l-8.73,15.12l-3.72-2.15L175.61,468.24z M183.59,455.37c-0.81-0.47-1.62-0.77-2.44-0.91
			c-0.81-0.14-1.62-0.1-2.44,0.11c-0.81,0.23-1.54,0.61-2.18,1.14c-0.63,0.52-1.19,1.19-1.67,2.02c-0.47,0.81-0.77,1.63-0.91,2.45
			c-0.14,0.82-0.1,1.63,0.12,2.45c0.22,0.8,0.59,1.53,1.12,2.19c0.53,0.64,1.2,1.19,2.01,1.66l1.07,0.62l0.64,0.37l0.36-0.63
			l5.69-9.85l0.36-0.63l-0.64-0.37l-1.09-0.63L183.59,455.37z"/>
	</g>
	<g>
		<path d="M155.34,455.4l1.33-1.91l5.64,3.93l0.6,0.42l0.42-0.6l2.18-3.13l0.42-0.61l-0.6-0.42l-4.08-2.84l1.33-1.91l4.08,2.84
			l0.6,0.42l0.42-0.6l2.18-3.13l0.42-0.61l-0.6-0.42l-5.64-3.93l1.33-1.91l5.64,3.93l2.52,1.75l-10.03,14.4L155.34,455.4z"/>
	</g>
	<g>
	</g>
	<g>
		<path d="M141.95,428.9l-1.4,1.54l-6.59,7.22l-1.73-1.58l12.02-13.16l0.22,16.67l0.9-0.99l7.12-7.79l1.73,1.58l-11.93,13.06
			L141.95,428.9z"/>
	</g>
	<g>
		<path d="M120.82,423.91l1.73-1.56l4.61,5.1l0.49,0.54l0.54-0.49l2.83-2.56l0.55-0.5l-0.49-0.54l-3.33-3.69l1.73-1.56l3.33,3.69
			l0.49,0.54l0.54-0.49l2.83-2.56l0.55-0.5l-0.49-0.54l-4.61-5.1l1.73-1.56l4.61,5.1l2.06,2.28l-13.02,11.77L120.82,423.91z"/>
	</g>
	<g>
		<path d="M112.13,413.35l-0.32-0.42c-0.37-0.5-0.68-1.01-0.92-1.53c-0.25-0.55-0.45-1.1-0.57-1.64c-0.13-0.56-0.21-1.13-0.24-1.72
			c-0.01-0.27-0.01-0.59,0-0.97l2.34,0.34c-0.02,0.61,0.04,1.22,0.18,1.82c0.2,0.8,0.56,1.56,1.09,2.28
			c0.55,0.73,1.17,1.3,1.87,1.71c0.71,0.42,1.51,0.7,2.41,0.83c0.9,0.12,1.75,0.08,2.54-0.11c0.83-0.21,1.59-0.58,2.29-1.1
			c0.7-0.52,1.27-1.15,1.71-1.87c0.42-0.71,0.7-1.5,0.84-2.4c0.14-0.89,0.1-1.74-0.11-2.54c-0.21-0.82-0.58-1.58-1.1-2.29
			c-0.41-0.55-0.9-1.03-1.45-1.42c-0.52-0.38-1.11-0.67-1.78-0.88c-0.55-0.17-1.1-0.26-1.63-0.28c-0.55-0.03-1.09,0.01-1.63,0.11
			l-1.13,0.23l0.69,0.93l2.78,3.74l-1.74,1.3l-0.12-0.16l-4.83-6.49c0.97-0.76,2-1.31,3.06-1.65c1.25-0.4,2.54-0.5,3.86-0.3
			c1.23,0.19,2.32,0.57,3.28,1.15c0.96,0.57,1.81,1.35,2.54,2.34c0.74,1,1.25,2.04,1.51,3.11c0.28,1.1,0.33,2.25,0.15,3.46
			c-0.18,1.24-0.56,2.34-1.14,3.28c-0.57,0.96-1.36,1.81-2.35,2.55c-0.99,0.73-2.03,1.24-3.12,1.52c-1.06,0.28-2.22,0.33-3.47,0.15
			c-1.21-0.17-2.3-0.54-3.29-1.13c-0.81-0.47-1.55-1.11-2.23-1.91L112.13,413.35z"/>
	</g>
	<g>
		<path d="M97.68,390.36c-0.15-1.1-0.07-2.26,0.24-3.48c0.31-1.2,0.8-2.25,1.48-3.15c0.69-0.91,1.56-1.68,2.6-2.29
			c1.05-0.62,2.14-1.01,3.27-1.16c1.12-0.16,2.27-0.08,3.47,0.24c1.18,0.31,2.23,0.8,3.14,1.49c0.91,0.69,1.67,1.56,2.28,2.6
			c0.62,1.05,1.01,2.14,1.17,3.26c0.16,1.12,0.09,2.28-0.23,3.46c-0.31,1.21-0.8,2.25-1.49,3.14c-0.66,0.89-1.53,1.65-2.6,2.28
			c-1.07,0.63-2.15,1.02-3.25,1.16c-1.1,0.16-2.25,0.09-3.48-0.21c-1.2-0.31-2.25-0.8-3.15-1.48c-0.89-0.66-1.65-1.53-2.29-2.61
			C98.21,392.55,97.83,391.47,97.68,390.36z M102.56,394.33c0.7,0.51,1.46,0.87,2.3,1.08c0.88,0.23,1.73,0.28,2.54,0.17
			c0.82-0.12,1.62-0.41,2.39-0.86c0.78-0.46,1.42-1.02,1.91-1.67c0.5-0.65,0.86-1.42,1.09-2.3c0.23-0.84,0.29-1.68,0.17-2.52
			c-0.12-0.84-0.41-1.64-0.85-2.4c-0.44-0.76-1-1.39-1.67-1.89s-1.43-0.87-2.29-1.09c-0.88-0.23-1.73-0.29-2.54-0.17
			c-0.82,0.1-1.62,0.38-2.4,0.84c-0.76,0.45-1.4,1.01-1.9,1.69c-0.49,0.66-0.85,1.42-1.09,2.29c-0.22,0.85-0.27,1.7-0.16,2.55
			c0.12,0.83,0.4,1.63,0.84,2.38C101.33,393.18,101.89,393.82,102.56,394.33z"/>
	</g>
	<g>
		<path d="M88.18,372.89c-0.25-0.55-0.44-1.11-0.58-1.7c-0.12-0.56-0.19-1.14-0.2-1.73c0-0.61,0.04-1.19,0.13-1.74
			c0.06-0.34,0.13-0.65,0.21-0.94l2.22,0.84c-0.16,0.6-0.24,1.2-0.23,1.81c0.03,0.84,0.22,1.66,0.58,2.46
			c0.36,0.8,0.85,1.49,1.46,2.07c0.63,0.57,1.35,1.01,2.17,1.32c0.83,0.31,1.66,0.46,2.5,0.43l0,0.01c0.83-0.03,1.65-0.23,2.46-0.59
			c0.83-0.37,1.53-0.86,2.09-1.46c0.57-0.62,1.01-1.34,1.32-2.17c0.32-0.81,0.47-1.64,0.44-2.49c-0.03-0.85-0.22-1.67-0.58-2.47
			c-0.36-0.8-0.85-1.49-1.47-2.08c-0.46-0.44-0.96-0.78-1.5-1.04l0.85-2.21c0.27,0.13,0.56,0.29,0.84,0.47
			c0.51,0.31,0.97,0.66,1.39,1.05c0.45,0.42,0.84,0.85,1.15,1.3c0.34,0.47,0.64,0.99,0.89,1.56c0.5,1.11,0.77,2.23,0.81,3.36
			c0.04,1.13-0.16,2.27-0.6,3.42c-0.44,1.17-1.04,2.15-1.82,2.96c-0.75,0.81-1.7,1.47-2.83,1.98c-1.13,0.51-2.25,0.78-3.36,0.8
			c-1.11,0.04-2.25-0.15-3.44-0.59c-1.16-0.44-2.15-1.04-2.97-1.81c-0.6-0.56-1.11-1.22-1.55-1.98L88.18,372.89z"/>
	</g>
	<g>
		<path d="M83.91,362.34l-0.8-2.2l16.41-5.99l0.8,2.2L83.91,362.34z"/>
	</g>
	<g>
		<path d="M78.16,342.95c0.14-1.1,0.51-2.21,1.11-3.31c0.6-1.08,1.35-1.97,2.22-2.67c0.9-0.71,1.93-1.23,3.1-1.56
			c1.18-0.33,2.33-0.43,3.46-0.3c1.12,0.13,2.22,0.5,3.29,1.11c1.06,0.59,1.95,1.34,2.66,2.24c0.7,0.9,1.22,1.93,1.55,3.09
			c0.33,1.18,0.44,2.33,0.31,3.45c-0.13,1.13-0.49,2.22-1.1,3.29c-0.6,1.09-1.35,1.98-2.24,2.66c-0.86,0.69-1.89,1.21-3.09,1.55
			c-1.19,0.34-2.34,0.44-3.44,0.3c-1.1-0.12-2.21-0.48-3.31-1.09c-1.08-0.61-1.97-1.35-2.67-2.22c-0.69-0.86-1.21-1.9-1.55-3.1
			C78.12,345.2,78.02,344.05,78.16,342.95z M81.88,348.03c0.55,0.67,1.2,1.21,1.95,1.62c0.79,0.44,1.6,0.71,2.41,0.81
			c0.82,0.09,1.67,0.02,2.52-0.23c0.87-0.25,1.63-0.63,2.27-1.13c0.65-0.5,1.19-1.15,1.63-1.95c0.44-0.75,0.7-1.55,0.8-2.4
			c0.1-0.84,0.02-1.69-0.22-2.54c-0.24-0.84-0.62-1.59-1.14-2.25c-0.52-0.66-1.17-1.2-1.94-1.64c-0.79-0.44-1.6-0.71-2.42-0.81
			c-0.82-0.11-1.66-0.04-2.53,0.21c-0.85,0.24-1.61,0.63-2.26,1.15c-0.64,0.51-1.18,1.16-1.63,1.94c-0.43,0.77-0.69,1.58-0.8,2.43
			c-0.1,0.83-0.03,1.67,0.21,2.52C80.97,346.6,81.36,347.36,81.88,348.03z"/>
	</g>
	<g>
		<path d="M88.74,323.82c-0.2-0.32-0.44-0.59-0.71-0.82c-0.27-0.23-0.59-0.4-0.94-0.51c-0.36-0.11-0.72-0.12-1.09-0.05
			c-0.31,0.05-0.58,0.17-0.83,0.36c-0.24,0.19-0.44,0.4-0.58,0.65c-0.15,0.25-0.27,0.54-0.38,0.88c-0.1,0.34-0.18,0.66-0.23,0.96
			c-0.05,0.3-0.08,0.63-0.11,0.99c-0.07,0.8-0.21,1.53-0.43,2.18c-0.22,0.66-0.56,1.26-1.01,1.81c-0.31,0.37-0.68,0.69-1.1,0.94
			c-0.43,0.25-0.89,0.43-1.39,0.53c-0.67,0.13-1.34,0.12-1.99-0.02c-0.65-0.14-1.25-0.39-1.79-0.76c-0.55-0.37-1-0.83-1.37-1.39
			c-0.37-0.56-0.62-1.17-0.75-1.85c-0.12-0.61-0.12-1.22-0.02-1.81c0.11-0.6,0.31-1.15,0.61-1.67c0.5-0.87,1.2-1.53,2.1-1.98
			l0.92,2.2c-0.33,0.19-0.62,0.46-0.85,0.8c-0.42,0.62-0.55,1.28-0.42,1.99c0.07,0.35,0.2,0.67,0.4,0.96
			c0.2,0.29,0.44,0.54,0.73,0.73c0.29,0.2,0.61,0.33,0.95,0.41c0.34,0.08,0.69,0.08,1.04,0.01c0.25-0.05,0.48-0.13,0.69-0.25
			s0.38-0.25,0.51-0.4c0.14-0.15,0.26-0.33,0.37-0.54c0.11-0.21,0.19-0.42,0.26-0.61c0.06-0.19,0.12-0.42,0.17-0.68
			c0.05-0.26,0.09-0.49,0.11-0.67c0.02-0.19,0.05-0.41,0.08-0.67s0.06-0.45,0.08-0.59c0.07-0.45,0.17-0.88,0.3-1.29
			c0.13-0.42,0.3-0.82,0.52-1.22c0.22-0.4,0.46-0.76,0.74-1.07c0.28-0.31,0.61-0.58,1-0.81c0.39-0.23,0.81-0.39,1.26-0.47
			c0.68-0.13,1.35-0.11,2.03,0.07c0.67,0.17,1.28,0.46,1.8,0.86c0.53,0.4,0.98,0.89,1.36,1.48c0.38,0.59,0.63,1.21,0.76,1.88
			c0.14,0.74,0.13,1.48-0.04,2.22c-0.17,0.75-0.48,1.43-0.94,2.05c-0.45,0.62-1.01,1.11-1.67,1.46l-0.93-2.21
			c0.48-0.31,0.83-0.76,1.06-1.34s0.29-1.16,0.18-1.72C89.09,324.47,88.94,324.13,88.74,323.82z"/>
	</g>
</g>
<g>
</g>
<g>
</g>
<g>
</g>
<g>
</g>
<g>
</g>
<g>
</g>
</svg>
